<mxfile host="Electron" modified="2024-05-17T03:57:47.373Z" agent="Mozilla/5.0 (Windows NT 10.0; Win64; x64) AppleWebKit/537.36 (KHTML, like Gecko) draw.io/24.4.0 Chrome/120.0.6099.109 Electron/28.1.0 Safari/537.36" etag="0Nn6QjHBbEXGeFJ1UwOt" version="24.4.0" type="device">
  <diagram name="Page-1" id="ys5TVZ7v5XsKSyoQzVE-">
    <mxGraphModel dx="930" dy="1633" grid="0" gridSize="10" guides="1" tooltips="1" connect="1" arrows="1" fold="1" page="1" pageScale="1" pageWidth="827" pageHeight="1169" math="1" shadow="0">
      <root>
        <mxCell id="0" />
        <mxCell id="1" parent="0" />
        <mxCell id="va03gOYCG1l0plrIrzYN-1" value="\[&lt;br&gt;\begin{align*}&amp;nbsp;&amp;nbsp;&lt;br&gt;\vec{\mathbf{A}}&amp;nbsp;\cdot \vec{\mathbf{B}}&lt;br&gt;&amp;nbsp; &amp;amp;= \left|\vec{\mathbf{A}}\right| \,&lt;br&gt;&amp;nbsp; &amp;nbsp; &amp;nbsp;\left|\vec{\mathbf{B}}\right| \cos{\theta} \\&lt;br&gt;\cos{\theta}&amp;nbsp;&lt;br&gt;&amp;nbsp; &amp;nbsp;&amp;amp;= \frac{\vec{\mathbf{A}}&amp;nbsp;\cdot \vec{\mathbf{B}}}{\left|\vec{\mathbf{A}}\right| \,&lt;br&gt;&amp;nbsp; &amp;nbsp; &amp;nbsp;\left|\vec{\mathbf{B}}\right|}&lt;br&gt;\end{align*}&lt;br&gt;\]" style="text;html=1;align=left;verticalAlign=middle;rounded=0;" parent="1" vertex="1">
          <mxGeometry x="60" y="10" width="150" height="80" as="geometry" />
        </mxCell>
        <mxCell id="va03gOYCG1l0plrIrzYN-2" value="" style="endArrow=block;html=1;rounded=0;endFill=1;" parent="1" edge="1">
          <mxGeometry width="50" height="50" relative="1" as="geometry">
            <mxPoint x="240" y="80" as="sourcePoint" />
            <mxPoint x="290" y="30" as="targetPoint" />
          </mxGeometry>
        </mxCell>
        <mxCell id="va03gOYCG1l0plrIrzYN-3" value="" style="endArrow=block;html=1;rounded=0;endFill=1;" parent="1" edge="1">
          <mxGeometry width="50" height="50" relative="1" as="geometry">
            <mxPoint x="240" y="80" as="sourcePoint" />
            <mxPoint x="310" y="100" as="targetPoint" />
          </mxGeometry>
        </mxCell>
        <mxCell id="va03gOYCG1l0plrIrzYN-4" value="\[&lt;br&gt;&amp;nbsp; \vec{\mathbf{A}}&amp;nbsp;&lt;br&gt;\]" style="text;html=1;align=left;verticalAlign=middle;rounded=0;" parent="1" vertex="1">
          <mxGeometry x="310" y="90" width="20" height="20" as="geometry" />
        </mxCell>
        <mxCell id="va03gOYCG1l0plrIrzYN-5" value="\[&lt;br&gt;&amp;nbsp; \vec{\mathbf{B}}&amp;nbsp;&lt;br&gt;\]" style="text;html=1;align=left;verticalAlign=middle;rounded=0;" parent="1" vertex="1">
          <mxGeometry x="290" y="10" width="20" height="20" as="geometry" />
        </mxCell>
        <mxCell id="va03gOYCG1l0plrIrzYN-6" value="" style="verticalLabelPosition=bottom;verticalAlign=top;html=1;shape=mxgraph.basic.arc;startAngle=0.13257308609418408;endAngle=0.2881918027317203;" parent="1" vertex="1">
          <mxGeometry x="220" y="60" width="40" height="40" as="geometry" />
        </mxCell>
        <mxCell id="va03gOYCG1l0plrIrzYN-7" value="\[&lt;br&gt;&amp;nbsp; \theta&amp;nbsp;&lt;br&gt;\]" style="text;html=1;align=left;verticalAlign=middle;rounded=0;" parent="1" vertex="1">
          <mxGeometry x="260" y="60" width="10" height="20" as="geometry" />
        </mxCell>
        <mxCell id="va03gOYCG1l0plrIrzYN-8" value="\[&lt;br&gt;&amp;nbsp; 0 \,\,\leq \,\, \cos{\theta} \,\, \leq \,\, 1&amp;nbsp;&lt;br&gt;\]" style="text;html=1;align=left;verticalAlign=middle;rounded=0;" parent="1" vertex="1">
          <mxGeometry x="160" y="120" width="70" height="20" as="geometry" />
        </mxCell>
        <mxCell id="va03gOYCG1l0plrIrzYN-10" value="" style="endArrow=block;html=1;rounded=0;endFill=1;startArrow=block;startFill=1;" parent="1" edge="1">
          <mxGeometry width="50" height="50" relative="1" as="geometry">
            <mxPoint x="160" y="150" as="sourcePoint" />
            <mxPoint x="240" y="150" as="targetPoint" />
          </mxGeometry>
        </mxCell>
        <mxCell id="va03gOYCG1l0plrIrzYN-11" value="least similar" style="text;html=1;align=right;verticalAlign=middle;rounded=0;" parent="1" vertex="1">
          <mxGeometry x="80" y="140" width="70" height="20" as="geometry" />
        </mxCell>
        <mxCell id="va03gOYCG1l0plrIrzYN-12" value="most similar" style="text;html=1;align=right;verticalAlign=middle;rounded=0;" parent="1" vertex="1">
          <mxGeometry x="240" y="140" width="70" height="20" as="geometry" />
        </mxCell>
        <mxCell id="va03gOYCG1l0plrIrzYN-14" value="&lt;div&gt;&lt;font face=&quot;Roboto Mono&quot;&gt;users_interests = [&lt;/font&gt;&lt;/div&gt;&lt;div&gt;&lt;font face=&quot;Roboto Mono&quot;&gt;&amp;nbsp; &lt;span style=&quot;background-color: rgb(255, 255, 102);&quot;&gt;[&quot;Hadoop&quot;, &quot;Big Data&quot;, &quot;HBase&quot;, &quot;Java&quot;, &quot;Spark&quot;, &quot;Storm&quot;, &quot;Cassandra&quot;]&lt;/span&gt;,&lt;/font&gt;&lt;/div&gt;&lt;div&gt;&lt;font face=&quot;Roboto Mono&quot;&gt;&amp;nbsp; [&quot;NoSQL&quot;, &quot;MongoDB&quot;, &quot;Cassandra&quot;, &quot;HBase&quot;, &quot;Postgres&quot;],&lt;/font&gt;&lt;/div&gt;&lt;div&gt;&lt;font face=&quot;Roboto Mono&quot;&gt;&amp;nbsp; [&quot;Python&quot;, &quot;scikit-learn&quot;, &quot;scipy&quot;, &quot;numpy&quot;, &quot;statsmodels&quot;, &quot;pandas&quot;],&lt;/font&gt;&lt;/div&gt;&lt;div&gt;&lt;font face=&quot;Roboto Mono&quot;&gt;&amp;nbsp; [&quot;R&quot;, &quot;Python&quot;, &quot;statistics&quot;, &quot;regression&quot;, &quot;probability&quot;],&lt;/font&gt;&lt;/div&gt;&lt;div&gt;&lt;font face=&quot;Roboto Mono&quot;&gt;&amp;nbsp; [&quot;machine learning&quot;, &quot;regression&quot;, &quot;decision trees&quot;, &quot;libsvm&quot;],&lt;/font&gt;&lt;/div&gt;&lt;div&gt;&lt;font face=&quot;Roboto Mono&quot;&gt;&amp;nbsp; [&quot;Python&quot;, &quot;R&quot;, &quot;Java&quot;, &quot;C++&quot;, &quot;Haskell&quot;, &quot;programming languages&quot;],&lt;/font&gt;&lt;/div&gt;&lt;div&gt;&lt;font face=&quot;Roboto Mono&quot;&gt;&amp;nbsp; [&quot;statistics&quot;, &quot;probability&quot;, &quot;mathematics&quot;, &quot;theory&quot;],&lt;/font&gt;&lt;/div&gt;&lt;div&gt;&lt;font face=&quot;Roboto Mono&quot;&gt;&amp;nbsp; [&quot;machine learning&quot;, &quot;scikit-learn&quot;, &quot;Mahout&quot;, &quot;neural networks&quot;],&lt;/font&gt;&lt;/div&gt;&lt;div&gt;&lt;font face=&quot;Roboto Mono&quot;&gt;&amp;nbsp; [&quot;neural networks&quot;, &quot;deep learning&quot;, &quot;Big Data&quot;, &quot;artificial intelligence&quot;],&lt;/font&gt;&lt;/div&gt;&lt;div&gt;&lt;font face=&quot;Roboto Mono&quot;&gt;&amp;nbsp; [&quot;Hadoop&quot;, &quot;Java&quot;, &quot;MapReduce&quot;, &quot;Big Data&quot;],&lt;/font&gt;&lt;/div&gt;&lt;div&gt;&lt;font face=&quot;Roboto Mono&quot;&gt;&amp;nbsp; [&quot;statistics&quot;, &quot;R&quot;, &quot;statsmodels&quot;],&lt;/font&gt;&lt;/div&gt;&lt;div&gt;&lt;font face=&quot;Roboto Mono&quot;&gt;&amp;nbsp; [&quot;C++&quot;, &quot;deep learning&quot;, &quot;artificial intelligence&quot;, &quot;probability&quot;],&lt;/font&gt;&lt;/div&gt;&lt;div&gt;&lt;font face=&quot;Roboto Mono&quot;&gt;&amp;nbsp; [&quot;pandas&quot;, &quot;R&quot;, &quot;Python&quot;],&lt;/font&gt;&lt;/div&gt;&lt;div&gt;&lt;font face=&quot;Roboto Mono&quot;&gt;&amp;nbsp; [&quot;databases&quot;, &quot;HBase&quot;, &quot;Postgres&quot;, &quot;MySQL&quot;, &quot;MongoDB&quot;],&lt;/font&gt;&lt;/div&gt;&lt;div&gt;&lt;font face=&quot;Roboto Mono&quot;&gt;&amp;nbsp; [&quot;libsvm&quot;, &quot;regression&quot;, &quot;support vector machines&quot;]&lt;/font&gt;&lt;/div&gt;&lt;div&gt;&lt;font face=&quot;Roboto Mono&quot;&gt;]&lt;/font&gt;&lt;/div&gt;" style="text;html=1;align=left;verticalAlign=middle;rounded=0;" parent="1" vertex="1">
          <mxGeometry x="40" y="200" width="570" height="270" as="geometry" />
        </mxCell>
        <mxCell id="va03gOYCG1l0plrIrzYN-15" value="&lt;div style=&quot;forced-color-adjust: none; color: rgb(0, 0, 0); font-family: Helvetica; font-size: 12px; font-style: normal; font-variant-ligatures: normal; font-variant-caps: normal; font-weight: 400; letter-spacing: normal; orphans: 2; text-align: left; text-indent: 0px; text-transform: none; widows: 2; word-spacing: 0px; -webkit-text-stroke-width: 0px; white-space: nowrap; text-decoration-thickness: initial; text-decoration-style: initial; text-decoration-color: initial;&quot;&gt;&lt;font face=&quot;Roboto Mono&quot; style=&quot;forced-color-adjust: none;&quot;&gt;users_interests[0] -&amp;gt; [&quot;Hadoop&quot;, &quot;Big Data&quot;, &quot;HBase&quot;, &quot;Java&quot;, &quot;Spark&quot;, &quot;Storm&quot;, &quot;Cassandra&quot;]&lt;/font&gt;&lt;/div&gt;" style="text;whiteSpace=wrap;html=1;" parent="1" vertex="1">
          <mxGeometry x="640" y="200" width="680" height="30" as="geometry" />
        </mxCell>
        <mxCell id="va03gOYCG1l0plrIrzYN-19" value="&lt;div&gt;[&lt;span style=&quot;background-color: rgb(255, 255, 102);&quot;&gt;&#39;Big Data&#39;&lt;/span&gt;,&lt;/div&gt;&lt;div&gt;&lt;span style=&quot;background-color: initial;&quot;&gt;&amp;nbsp;&#39;C++&#39;,&lt;/span&gt;&lt;/div&gt;&lt;div&gt;&lt;span style=&quot;background-color: initial;&quot;&gt;&amp;nbsp;&lt;/span&gt;&lt;span style=&quot;background-color: rgb(255, 255, 102);&quot;&gt;&#39;Cassandra&#39;&lt;/span&gt;&lt;span style=&quot;background-color: initial;&quot;&gt;,&amp;nbsp;&lt;/span&gt;&lt;/div&gt;&lt;div&gt;&lt;span style=&quot;background-color: initial;&quot;&gt;&amp;nbsp;&lt;/span&gt;&lt;span style=&quot;background-color: rgb(255, 255, 102);&quot;&gt;&#39;HBase&#39;&lt;/span&gt;&lt;span style=&quot;background-color: initial;&quot;&gt;,&lt;/span&gt;&lt;/div&gt;&lt;div&gt;&lt;span style=&quot;background-color: initial;&quot;&gt;&amp;nbsp;&lt;/span&gt;&lt;span style=&quot;background-color: rgb(255, 255, 102);&quot;&gt;&#39;Hadoop&#39;&lt;/span&gt;&lt;span style=&quot;background-color: initial;&quot;&gt;,&lt;/span&gt;&lt;/div&gt;&lt;div&gt;&lt;span style=&quot;background-color: initial;&quot;&gt;&amp;nbsp;&#39;Haskell&#39;,&amp;nbsp;&lt;/span&gt;&lt;/div&gt;&lt;div&gt;&lt;span style=&quot;background-color: initial;&quot;&gt;&amp;nbsp;&lt;/span&gt;&lt;span style=&quot;background-color: rgb(255, 255, 102);&quot;&gt;&#39;Java&#39;&lt;/span&gt;&lt;span style=&quot;background-color: initial;&quot;&gt;,&amp;nbsp;&lt;/span&gt;&lt;/div&gt;&lt;div&gt;&lt;span style=&quot;background-color: initial;&quot;&gt;&amp;nbsp;&#39;Mahout&#39;,&amp;nbsp;&lt;/span&gt;&lt;/div&gt;&lt;div&gt;&lt;span style=&quot;background-color: initial;&quot;&gt;&amp;nbsp;&#39;MapReduce&#39;,&amp;nbsp;&lt;/span&gt;&lt;/div&gt;&lt;div&gt;&lt;span style=&quot;background-color: initial;&quot;&gt;&amp;nbsp;&#39;MongoDB&#39;,&amp;nbsp;&lt;/span&gt;&lt;/div&gt;&lt;div&gt;&lt;span style=&quot;background-color: initial;&quot;&gt;&amp;nbsp;&#39;MySQL&#39;,&amp;nbsp;&lt;/span&gt;&lt;/div&gt;&lt;div&gt;&lt;span style=&quot;background-color: initial;&quot;&gt;&amp;nbsp;&#39;NoSQL&#39;,&amp;nbsp;&lt;/span&gt;&lt;/div&gt;&lt;div&gt;&lt;span style=&quot;background-color: initial;&quot;&gt;&amp;nbsp;&#39;Postgres&#39;,&amp;nbsp;&lt;/span&gt;&lt;/div&gt;&lt;div&gt;&lt;span style=&quot;background-color: initial;&quot;&gt;&amp;nbsp;&#39;Python&#39;,&amp;nbsp;&lt;/span&gt;&lt;/div&gt;&lt;div&gt;&lt;span style=&quot;background-color: initial;&quot;&gt;&amp;nbsp;&#39;R&#39;,&amp;nbsp;&lt;/span&gt;&lt;/div&gt;&lt;div&gt;&lt;span style=&quot;background-color: initial;&quot;&gt;&amp;nbsp;&lt;/span&gt;&lt;span style=&quot;background-color: rgb(255, 255, 102);&quot;&gt;&#39;Spark&#39;&lt;/span&gt;&lt;span style=&quot;background-color: initial;&quot;&gt;,&amp;nbsp;&lt;/span&gt;&lt;/div&gt;&lt;div&gt;&lt;span style=&quot;background-color: initial;&quot;&gt;&amp;nbsp;&lt;/span&gt;&lt;span style=&quot;background-color: rgb(255, 255, 102);&quot;&gt;&#39;Storm&#39;&lt;/span&gt;&lt;span style=&quot;background-color: initial;&quot;&gt;,&amp;nbsp;&lt;/span&gt;&lt;/div&gt;&lt;div&gt;&lt;span style=&quot;background-color: initial;&quot;&gt;&amp;nbsp;&#39;artificial intelligence&#39;,&amp;nbsp;&lt;/span&gt;&lt;/div&gt;&lt;div&gt;&lt;span style=&quot;background-color: initial;&quot;&gt;&amp;nbsp;&#39;databases&#39;,&amp;nbsp;&lt;/span&gt;&lt;/div&gt;&lt;div&gt;&lt;span style=&quot;background-color: initial;&quot;&gt;&amp;nbsp;&#39;decision trees&#39;,&amp;nbsp;&lt;/span&gt;&lt;/div&gt;&lt;div&gt;&lt;span style=&quot;background-color: initial;&quot;&gt;&amp;nbsp;&#39;deep learning&#39;,&amp;nbsp;&lt;/span&gt;&lt;/div&gt;&lt;div&gt;&lt;span style=&quot;background-color: initial;&quot;&gt;&amp;nbsp;&#39;libsvm&#39;,&amp;nbsp;&lt;/span&gt;&lt;/div&gt;&lt;div&gt;&lt;span style=&quot;background-color: initial;&quot;&gt;&amp;nbsp;&#39;machine learning&#39;,&amp;nbsp;&lt;/span&gt;&lt;/div&gt;&lt;div&gt;&lt;span style=&quot;background-color: initial;&quot;&gt;&amp;nbsp;&#39;mathematics&#39;,&amp;nbsp;&lt;/span&gt;&lt;/div&gt;&lt;div&gt;&lt;span style=&quot;background-color: initial;&quot;&gt;&amp;nbsp;&#39;neural networks&#39;,&amp;nbsp;&lt;/span&gt;&lt;/div&gt;&lt;div&gt;&lt;span style=&quot;background-color: initial;&quot;&gt;&amp;nbsp;&#39;numpy&#39;,&amp;nbsp;&lt;/span&gt;&lt;/div&gt;&lt;div&gt;&lt;span style=&quot;background-color: initial;&quot;&gt;&amp;nbsp;&#39;pandas&#39;,&amp;nbsp;&lt;/span&gt;&lt;/div&gt;&lt;div&gt;&lt;span style=&quot;background-color: initial;&quot;&gt;&amp;nbsp;&#39;probability&#39;,&amp;nbsp;&lt;/span&gt;&lt;/div&gt;&lt;div&gt;&lt;span style=&quot;background-color: initial;&quot;&gt;&amp;nbsp;&#39;programming languages&#39;,&amp;nbsp;&lt;/span&gt;&lt;/div&gt;&lt;div&gt;&lt;span style=&quot;background-color: initial;&quot;&gt;&amp;nbsp;&#39;regression&#39;,&amp;nbsp;&lt;/span&gt;&lt;/div&gt;&lt;div&gt;&lt;span style=&quot;background-color: initial;&quot;&gt;&amp;nbsp;&#39;scikit-learn&#39;,&amp;nbsp;&lt;/span&gt;&lt;/div&gt;&lt;div&gt;&lt;span style=&quot;background-color: initial;&quot;&gt;&amp;nbsp;&#39;scipy&#39;,&amp;nbsp;&lt;/span&gt;&lt;/div&gt;&lt;div&gt;&lt;span style=&quot;background-color: initial;&quot;&gt;&amp;nbsp;&#39;statistics&#39;,&amp;nbsp;&lt;/span&gt;&lt;/div&gt;&lt;div&gt;&lt;span style=&quot;background-color: initial;&quot;&gt;&amp;nbsp;&#39;statsmodels&#39;,&amp;nbsp;&lt;/span&gt;&lt;/div&gt;&lt;div&gt;&lt;span style=&quot;background-color: initial;&quot;&gt;&amp;nbsp;&#39;support vector machines&#39;,&amp;nbsp;&lt;/span&gt;&lt;/div&gt;&lt;div&gt;&lt;span style=&quot;background-color: initial;&quot;&gt;&amp;nbsp;&#39;theory&#39;]&lt;/span&gt;&lt;/div&gt;" style="text;html=1;align=left;verticalAlign=middle;rounded=0;fontFamily=Roboto Mono;fontSource=https%3A%2F%2Ffonts.googleapis.com%2Fcss%3Ffamily%3DRoboto%2BMono;" parent="1" vertex="1">
          <mxGeometry x="680" y="360" width="200" height="520" as="geometry" />
        </mxCell>
        <mxCell id="va03gOYCG1l0plrIrzYN-20" value="&lt;div&gt;[ 0,&lt;/div&gt;&lt;div&gt;&amp;nbsp; 1,&lt;/div&gt;&lt;div&gt;&amp;nbsp; 2,&lt;/div&gt;&lt;div&gt;&amp;nbsp; 3,&lt;/div&gt;&lt;div&gt;&amp;nbsp; 4,&lt;/div&gt;&lt;div&gt;&amp;nbsp; 5,&lt;/div&gt;&lt;div&gt;&amp;nbsp; 6,&lt;/div&gt;&lt;div&gt;&amp;nbsp; 7,&lt;/div&gt;&lt;div&gt;&amp;nbsp; 8,&lt;/div&gt;&lt;div&gt;&amp;nbsp; 9,&lt;/div&gt;&lt;div&gt;&amp;nbsp;10,&lt;/div&gt;&lt;div&gt;&amp;nbsp;11,&lt;/div&gt;&lt;div&gt;&amp;nbsp;12,&lt;/div&gt;&lt;div&gt;&amp;nbsp;13,&lt;/div&gt;&lt;div&gt;&amp;nbsp;14,&lt;/div&gt;&lt;div&gt;&amp;nbsp;15,&lt;/div&gt;&lt;div&gt;&amp;nbsp;16,&lt;/div&gt;&lt;div&gt;&amp;nbsp;17,&lt;/div&gt;&lt;div&gt;&amp;nbsp;18,&lt;/div&gt;&lt;div&gt;&amp;nbsp;19,&lt;/div&gt;&lt;div&gt;&amp;nbsp;20,&lt;/div&gt;&lt;div&gt;&amp;nbsp;21,&lt;/div&gt;&lt;div&gt;&amp;nbsp;22,&lt;/div&gt;&lt;div&gt;&amp;nbsp;23,&lt;/div&gt;&lt;div&gt;&amp;nbsp;24,&lt;/div&gt;&lt;div&gt;&amp;nbsp;25,&lt;/div&gt;&lt;div&gt;&amp;nbsp;26,&lt;/div&gt;&lt;div&gt;&amp;nbsp;27,&lt;/div&gt;&lt;div&gt;&amp;nbsp;28,&lt;/div&gt;&lt;div&gt;&amp;nbsp;29,&lt;/div&gt;&lt;div&gt;&amp;nbsp;30,&lt;/div&gt;&lt;div&gt;&amp;nbsp;31,&lt;/div&gt;&lt;div&gt;&amp;nbsp;32,&lt;/div&gt;&lt;div&gt;&amp;nbsp;33,&lt;/div&gt;&lt;div&gt;&amp;nbsp;34,&lt;/div&gt;&lt;div&gt;&amp;nbsp;35 ]&lt;/div&gt;" style="text;html=1;align=left;verticalAlign=middle;whiteSpace=wrap;rounded=0;fontFamily=Roboto Mono;fontSource=https%3A%2F%2Ffonts.googleapis.com%2Fcss%3Ffamily%3DRoboto%2BMono;" parent="1" vertex="1">
          <mxGeometry x="640" y="360" width="40" height="520" as="geometry" />
        </mxCell>
        <mxCell id="va03gOYCG1l0plrIrzYN-21" value="&lt;div style=&quot;forced-color-adjust: none; color: rgb(0, 0, 0); font-family: Helvetica; font-size: 12px; font-style: normal; font-variant-ligatures: normal; font-variant-caps: normal; letter-spacing: normal; orphans: 2; text-align: left; text-indent: 0px; text-transform: none; widows: 2; word-spacing: 0px; -webkit-text-stroke-width: 0px; white-space: nowrap; background-color: rgb(251, 251, 251); text-decoration-thickness: initial; text-decoration-style: initial; text-decoration-color: initial;&quot;&gt;&lt;font face=&quot;Roboto Mono&quot; style=&quot;forced-color-adjust: none;&quot;&gt;user_interest_vectors[0] -&amp;gt; [&lt;b&gt;1&lt;/b&gt;, 0, &lt;b&gt;1&lt;/b&gt;, &lt;b&gt;1&lt;/b&gt;, &lt;b&gt;1&lt;/b&gt;, 0, &lt;b&gt;1&lt;/b&gt;, 0, 0, 0, 0, 0, 0, 0, 0, &lt;b&gt;1&lt;/b&gt;, &lt;b&gt;1&lt;/b&gt;, 0, 0, 0, 0, 0, 0, 0, 0, 0, 0, 0, 0, 0, 0, 0, 0, 0, 0, 0]&lt;/font&gt;&lt;/div&gt;" style="text;whiteSpace=wrap;html=1;" parent="1" vertex="1">
          <mxGeometry x="640" y="250" width="1000" height="30" as="geometry" />
        </mxCell>
        <mxCell id="va03gOYCG1l0plrIrzYN-22" value="&lt;div style=&quot;forced-color-adjust: none; color: rgb(0, 0, 0); font-size: 12px; font-style: normal; font-variant-ligatures: normal; font-variant-caps: normal; font-weight: 400; letter-spacing: normal; orphans: 2; text-align: left; text-indent: 0px; text-transform: none; widows: 2; word-spacing: 0px; -webkit-text-stroke-width: 0px; white-space: nowrap; text-decoration-thickness: initial; text-decoration-style: initial; text-decoration-color: initial;&quot;&gt;&lt;font style=&quot;&quot; face=&quot;Roboto Mono&quot;&gt;&lt;span style=&quot;background-color: rgb(251, 251, 251);&quot;&gt;&amp;nbsp; &amp;nbsp; &amp;nbsp; &amp;nbsp; &amp;nbsp; &amp;nbsp; &amp;nbsp; &amp;nbsp; &amp;nbsp; &amp;nbsp; &amp;nbsp; &amp;nbsp; &amp;nbsp; &amp;nbsp; &amp;nbsp;&lt;/span&gt;&lt;span style=&quot;background-color: rgb(255, 255, 102);&quot;&gt;0&lt;/span&gt;&lt;span style=&quot;background-color: rgb(251, 251, 251);&quot;&gt;, 1, &lt;/span&gt;&lt;span style=&quot;background-color: rgb(255, 255, 102);&quot;&gt;2&lt;/span&gt;&lt;span style=&quot;background-color: rgb(251, 251, 251);&quot;&gt;, &lt;/span&gt;&lt;span style=&quot;background-color: rgb(255, 255, 102);&quot;&gt;3&lt;/span&gt;&lt;span style=&quot;background-color: rgb(251, 251, 251);&quot;&gt;, &lt;/span&gt;&lt;span style=&quot;background-color: rgb(255, 255, 102);&quot;&gt;4&lt;/span&gt;&lt;span style=&quot;background-color: rgb(251, 251, 251);&quot;&gt;, 5, &lt;/span&gt;&lt;span style=&quot;background-color: rgb(255, 255, 102);&quot;&gt;6&lt;/span&gt;&lt;span style=&quot;background-color: rgb(251, 251, 251);&quot;&gt;, 7, 8, 9,10,11,12,13,14,&lt;/span&gt;&lt;span style=&quot;background-color: rgb(255, 255, 102);&quot;&gt;15&lt;/span&gt;&lt;span style=&quot;background-color: rgb(251, 251, 251);&quot;&gt;,&lt;/span&gt;&lt;span style=&quot;background-color: rgb(255, 255, 102);&quot;&gt;16&lt;/span&gt;&lt;span style=&quot;background-color: rgb(251, 251, 251);&quot;&gt;,17,18,19,20,21,22,23,24,25,26,27,28,29,30,31,32,33,34,35&amp;nbsp;&lt;/span&gt;&lt;/font&gt;&lt;/div&gt;" style="text;whiteSpace=wrap;html=1;" parent="1" vertex="1">
          <mxGeometry x="640" y="230" width="1000" height="30" as="geometry" />
        </mxCell>
        <mxCell id="va03gOYCG1l0plrIrzYN-23" value="&lt;div style=&quot;forced-color-adjust: none; color: rgb(0, 0, 0); font-family: Helvetica; font-size: 12px; font-style: normal; font-variant-ligatures: normal; font-variant-caps: normal; font-weight: 400; letter-spacing: normal; orphans: 2; text-align: left; text-indent: 0px; text-transform: none; widows: 2; word-spacing: 0px; -webkit-text-stroke-width: 0px; white-space: nowrap; background-color: rgb(251, 251, 251); text-decoration-thickness: initial; text-decoration-style: initial; text-decoration-color: initial;&quot;&gt;&lt;font face=&quot;Roboto Mono&quot; style=&quot;forced-color-adjust: none;&quot;&gt;unique_interests&lt;/font&gt;&lt;/div&gt;" style="text;whiteSpace=wrap;html=1;" parent="1" vertex="1">
          <mxGeometry x="680" y="330" width="130" height="30" as="geometry" />
        </mxCell>
        <mxCell id="va03gOYCG1l0plrIrzYN-24" value="&lt;div style=&quot;forced-color-adjust: none; color: rgb(0, 0, 0); font-family: Helvetica; font-size: 12px; font-style: normal; font-variant-ligatures: normal; font-variant-caps: normal; font-weight: 400; letter-spacing: normal; orphans: 2; text-align: left; text-indent: 0px; text-transform: none; widows: 2; word-spacing: 0px; -webkit-text-stroke-width: 0px; white-space: nowrap; background-color: rgb(251, 251, 251); text-decoration-thickness: initial; text-decoration-style: initial; text-decoration-color: initial;&quot;&gt;&lt;font face=&quot;Roboto Mono&quot; style=&quot;forced-color-adjust: none;&quot;&gt;most_similar_users_to(0)&lt;/font&gt;&lt;/div&gt;" style="text;whiteSpace=wrap;html=1;" parent="1" vertex="1">
          <mxGeometry x="920" y="350" width="180" height="30" as="geometry" />
        </mxCell>
        <mxCell id="va03gOYCG1l0plrIrzYN-27" value="&lt;div style=&quot;forced-color-adjust: none; color: rgb(0, 0, 0); font-size: 12px; font-style: normal; font-variant-ligatures: normal; font-variant-caps: normal; font-weight: 400; letter-spacing: normal; orphans: 2; text-align: left; text-indent: 0px; text-transform: none; widows: 2; word-spacing: 0px; -webkit-text-stroke-width: 0px; white-space: nowrap; text-decoration-thickness: initial; text-decoration-style: initial; text-decoration-color: initial;&quot;&gt;&lt;div style=&quot;&quot;&gt;&lt;font style=&quot;&quot; face=&quot;Roboto Mono&quot;&gt;[( 9, 0.5669467095138409),&lt;/font&gt;&lt;/div&gt;&lt;div style=&quot;&quot;&gt;&lt;font face=&quot;Roboto Mono&quot;&gt;&amp;nbsp;( 1, 0.3380617018914066),&lt;/font&gt;&lt;/div&gt;&lt;div style=&quot;&quot;&gt;&lt;font face=&quot;Roboto Mono&quot;&gt;&amp;nbsp;( 8, 0.1889822365046136),&lt;/font&gt;&lt;/div&gt;&lt;div style=&quot;&quot;&gt;&lt;font face=&quot;Roboto Mono&quot;&gt;&amp;nbsp;(13, 0.1690308509457033),&lt;/font&gt;&lt;/div&gt;&lt;div style=&quot;&quot;&gt;&lt;font style=&quot;&quot; face=&quot;Roboto Mono&quot;&gt;&amp;nbsp;( 5, 0.1543033499620919)]&lt;/font&gt;&lt;/div&gt;&lt;/div&gt;" style="text;whiteSpace=wrap;html=1;" parent="1" vertex="1">
          <mxGeometry x="960" y="400" width="200" height="90" as="geometry" />
        </mxCell>
        <mxCell id="va03gOYCG1l0plrIrzYN-28" value="\(\cos{\theta}\)" style="text;html=1;align=left;verticalAlign=middle;rounded=0;" parent="1" vertex="1">
          <mxGeometry x="1050" y="380" width="40" height="20" as="geometry" />
        </mxCell>
        <mxCell id="va03gOYCG1l0plrIrzYN-29" value="user" style="text;html=1;align=left;verticalAlign=middle;rounded=0;" parent="1" vertex="1">
          <mxGeometry x="970" y="380" width="30" height="20" as="geometry" />
        </mxCell>
        <mxCell id="va03gOYCG1l0plrIrzYN-30" value="&lt;div style=&quot;forced-color-adjust: none; color: rgb(0, 0, 0); font-family: Helvetica; font-size: 12px; font-style: normal; font-variant-ligatures: normal; font-variant-caps: normal; font-weight: 400; letter-spacing: normal; orphans: 2; text-align: left; text-indent: 0px; text-transform: none; widows: 2; word-spacing: 0px; -webkit-text-stroke-width: 0px; white-space: nowrap; background-color: rgb(251, 251, 251); text-decoration-thickness: initial; text-decoration-style: initial; text-decoration-color: initial;&quot;&gt;&lt;font face=&quot;Roboto Mono&quot; style=&quot;forced-color-adjust: none;&quot;&gt;user_based_suggestion(0)&lt;/font&gt;&lt;/div&gt;" style="text;whiteSpace=wrap;html=1;" parent="1" vertex="1">
          <mxGeometry x="1200" y="350" width="180" height="30" as="geometry" />
        </mxCell>
        <mxCell id="va03gOYCG1l0plrIrzYN-31" value="&lt;div style=&quot;forced-color-adjust: none; color: rgb(0, 0, 0); font-family: Helvetica; font-size: 12px; font-style: normal; font-variant-ligatures: normal; font-variant-caps: normal; font-weight: 400; letter-spacing: normal; orphans: 2; text-align: left; text-indent: 0px; text-transform: none; widows: 2; word-spacing: 0px; -webkit-text-stroke-width: 0px; white-space: nowrap; text-decoration-thickness: initial; text-decoration-style: initial; text-decoration-color: initial;&quot;&gt;&lt;font face=&quot;Roboto Mono&quot; style=&quot;forced-color-adjust: none;&quot;&gt;&lt;span style=&quot;background-color: rgb(251, 251, 251);&quot;&gt;&amp;nbsp;users_interests[9] -&amp;gt; [&lt;/span&gt;&lt;span style=&quot;background-color: rgb(51, 255, 255);&quot;&gt;&quot;Hadoop&quot;&lt;/span&gt;&lt;span style=&quot;background-color: rgb(251, 251, 251);&quot;&gt;, &lt;/span&gt;&lt;span style=&quot;background-color: rgb(102, 255, 102);&quot;&gt;&quot;Java&quot;&lt;/span&gt;&lt;span style=&quot;background-color: rgb(251, 251, 251);&quot;&gt;, &lt;/span&gt;&lt;span style=&quot;background-color: rgb(255, 153, 153);&quot;&gt;&quot;MapReduce&quot;&lt;/span&gt;&lt;span style=&quot;background-color: rgb(251, 251, 251);&quot;&gt;, &lt;/span&gt;&lt;span style=&quot;background-color: rgb(255, 255, 102);&quot;&gt;&quot;Big Data&quot;&lt;/span&gt;&lt;span style=&quot;background-color: rgb(251, 251, 251);&quot;&gt;]&lt;/span&gt;&lt;/font&gt;&lt;/div&gt;" style="text;whiteSpace=wrap;html=1;" parent="1" vertex="1">
          <mxGeometry x="1241" y="380" width="480" height="30" as="geometry" />
        </mxCell>
        <mxCell id="va03gOYCG1l0plrIrzYN-32" value="&lt;div style=&quot;forced-color-adjust: none; color: rgb(0, 0, 0); font-size: 12px; font-style: normal; font-variant-ligatures: normal; font-variant-caps: normal; font-weight: 400; letter-spacing: normal; orphans: 2; text-align: left; text-indent: 0px; text-transform: none; widows: 2; word-spacing: 0px; -webkit-text-stroke-width: 0px; white-space: nowrap; background-color: rgb(251, 251, 251); text-decoration-thickness: initial; text-decoration-style: initial; text-decoration-color: initial;&quot;&gt;&lt;font face=&quot;Roboto Mono&quot;&gt;&amp;nbsp; &amp;nbsp; &amp;nbsp; &amp;nbsp; &amp;nbsp; &amp;nbsp; &amp;nbsp; &amp;nbsp; &amp;nbsp; &amp;nbsp; &amp;nbsp; &amp;nbsp; &amp;nbsp; &amp;nbsp;0.567&amp;nbsp; &amp;nbsp;0.567&amp;nbsp; &amp;nbsp; &amp;nbsp; &amp;nbsp; 0.567&amp;nbsp; &amp;nbsp; &amp;nbsp; &amp;nbsp;0.567&lt;/font&gt;&lt;/div&gt;" style="text;whiteSpace=wrap;html=1;" parent="1" vertex="1">
          <mxGeometry x="1241" y="400" width="480" height="30" as="geometry" />
        </mxCell>
        <mxCell id="va03gOYCG1l0plrIrzYN-33" value="&lt;div style=&quot;forced-color-adjust: none; color: rgb(0, 0, 0); font-family: Helvetica; font-size: 12px; font-style: normal; font-variant-ligatures: normal; font-variant-caps: normal; font-weight: 400; letter-spacing: normal; orphans: 2; text-align: left; text-indent: 0px; text-transform: none; widows: 2; word-spacing: 0px; -webkit-text-stroke-width: 0px; white-space: nowrap; text-decoration-thickness: initial; text-decoration-style: initial; text-decoration-color: initial;&quot;&gt;&lt;font face=&quot;Roboto Mono&quot; style=&quot;forced-color-adjust: none;&quot;&gt;&lt;span style=&quot;background-color: rgb(251, 251, 251);&quot;&gt;&amp;nbsp;users_interests[1] -&amp;gt; [&quot;NoSQL&quot;, &lt;/span&gt;&lt;span style=&quot;background-color: rgb(255, 153, 255);&quot;&gt;&quot;MongoDB&quot;&lt;/span&gt;&lt;span style=&quot;background-color: rgb(251, 251, 251);&quot;&gt;, &quot;Cassandra&quot;, &quot;HBase&quot;, &quot;Postgres&quot;]&lt;/span&gt;&lt;/font&gt;&lt;/div&gt;" style="text;whiteSpace=wrap;html=1;" parent="1" vertex="1">
          <mxGeometry x="1241" y="430" width="560" height="30" as="geometry" />
        </mxCell>
        <mxCell id="va03gOYCG1l0plrIrzYN-34" value="&lt;div style=&quot;forced-color-adjust: none; color: rgb(0, 0, 0); font-size: 12px; font-style: normal; font-variant-ligatures: normal; font-variant-caps: normal; font-weight: 400; letter-spacing: normal; orphans: 2; text-align: left; text-indent: 0px; text-transform: none; widows: 2; word-spacing: 0px; -webkit-text-stroke-width: 0px; white-space: nowrap; background-color: rgb(251, 251, 251); text-decoration-thickness: initial; text-decoration-style: initial; text-decoration-color: initial;&quot;&gt;&lt;font face=&quot;Roboto Mono&quot;&gt;&amp;nbsp; &amp;nbsp; &amp;nbsp; &amp;nbsp; &amp;nbsp; &amp;nbsp; &amp;nbsp; &amp;nbsp; &amp;nbsp; &amp;nbsp; &amp;nbsp; &amp;nbsp; &amp;nbsp; 0.338&amp;nbsp; &amp;nbsp; &amp;nbsp; 0.338&amp;nbsp; &amp;nbsp; &amp;nbsp; &amp;nbsp; 0.338&amp;nbsp; &amp;nbsp; 0.338&amp;nbsp; &amp;nbsp; &amp;nbsp; &amp;nbsp;0.338&lt;/font&gt;&lt;/div&gt;" style="text;whiteSpace=wrap;html=1;" parent="1" vertex="1">
          <mxGeometry x="1241" y="450" width="560" height="30" as="geometry" />
        </mxCell>
        <mxCell id="va03gOYCG1l0plrIrzYN-35" value="&lt;div style=&quot;forced-color-adjust: none; color: rgb(0, 0, 0); font-family: Helvetica; font-size: 12px; font-style: normal; font-variant-ligatures: normal; font-variant-caps: normal; font-weight: 400; letter-spacing: normal; orphans: 2; text-align: left; text-indent: 0px; text-transform: none; widows: 2; word-spacing: 0px; -webkit-text-stroke-width: 0px; white-space: nowrap; text-decoration-thickness: initial; text-decoration-style: initial; text-decoration-color: initial;&quot;&gt;&lt;font face=&quot;Roboto Mono&quot; style=&quot;forced-color-adjust: none;&quot;&gt;&lt;span style=&quot;background-color: rgb(251, 251, 251);&quot;&gt;&amp;nbsp;users_interests[8] -&amp;gt; [&quot;neural networks&quot;, &quot;deep learning&quot;, &lt;/span&gt;&lt;span style=&quot;background-color: rgb(255, 255, 102);&quot;&gt;&quot;Big Data&quot;&lt;/span&gt;&lt;span style=&quot;background-color: rgb(251, 251, 251);&quot;&gt;, &quot;artificial intelligence&quot;]&lt;/span&gt;&lt;/font&gt;&lt;/div&gt;" style="text;whiteSpace=wrap;html=1;" parent="1" vertex="1">
          <mxGeometry x="1241" y="480" width="560" height="30" as="geometry" />
        </mxCell>
        <mxCell id="va03gOYCG1l0plrIrzYN-36" value="&lt;div style=&quot;forced-color-adjust: none; color: rgb(0, 0, 0); font-size: 12px; font-style: normal; font-variant-ligatures: normal; font-variant-caps: normal; font-weight: 400; letter-spacing: normal; orphans: 2; text-align: left; text-indent: 0px; text-transform: none; widows: 2; word-spacing: 0px; -webkit-text-stroke-width: 0px; white-space: nowrap; background-color: rgb(251, 251, 251); text-decoration-thickness: initial; text-decoration-style: initial; text-decoration-color: initial;&quot;&gt;&lt;font face=&quot;Roboto Mono&quot;&gt;&amp;nbsp; &amp;nbsp; &amp;nbsp; &amp;nbsp; &amp;nbsp; &amp;nbsp; &amp;nbsp; &amp;nbsp; &amp;nbsp; &amp;nbsp; &amp;nbsp; &amp;nbsp; &amp;nbsp; &amp;nbsp; &amp;nbsp; &amp;nbsp; &amp;nbsp; &amp;nbsp; 0.189&amp;nbsp; &amp;nbsp; &amp;nbsp; &amp;nbsp; &amp;nbsp; &amp;nbsp; 0.189&amp;nbsp; &amp;nbsp; &amp;nbsp; &amp;nbsp;0.189&amp;nbsp; &amp;nbsp; &amp;nbsp; &amp;nbsp; &amp;nbsp; &amp;nbsp; &amp;nbsp; &amp;nbsp; &amp;nbsp; &amp;nbsp; &amp;nbsp; 0.189&lt;/font&gt;&lt;/div&gt;" style="text;whiteSpace=wrap;html=1;" parent="1" vertex="1">
          <mxGeometry x="1241" y="500" width="720" height="30" as="geometry" />
        </mxCell>
        <mxCell id="va03gOYCG1l0plrIrzYN-37" value="&lt;div style=&quot;forced-color-adjust: none; color: rgb(0, 0, 0); font-family: Helvetica; font-size: 12px; font-style: normal; font-variant-ligatures: normal; font-variant-caps: normal; font-weight: 400; letter-spacing: normal; orphans: 2; text-align: left; text-indent: 0px; text-transform: none; widows: 2; word-spacing: 0px; -webkit-text-stroke-width: 0px; white-space: nowrap; text-decoration-thickness: initial; text-decoration-style: initial; text-decoration-color: initial;&quot;&gt;&lt;font face=&quot;Roboto Mono&quot; style=&quot;forced-color-adjust: none;&quot;&gt;&lt;span style=&quot;background-color: rgb(251, 251, 251);&quot;&gt;users_interests[13] -&amp;gt; [&quot;databases&quot;, &quot;HBase&quot;, &quot;Postgres&quot;, &quot;MySQL&quot;, &lt;/span&gt;&lt;span style=&quot;background-color: rgb(255, 153, 255);&quot;&gt;&quot;MongoDB&quot;&lt;/span&gt;&lt;span style=&quot;background-color: rgb(251, 251, 251);&quot;&gt;]&lt;/span&gt;&lt;/font&gt;&lt;/div&gt;" style="text;whiteSpace=wrap;html=1;" parent="1" vertex="1">
          <mxGeometry x="1241" y="530" width="560" height="30" as="geometry" />
        </mxCell>
        <mxCell id="va03gOYCG1l0plrIrzYN-38" value="&lt;div style=&quot;forced-color-adjust: none; color: rgb(0, 0, 0); font-size: 12px; font-style: normal; font-variant-ligatures: normal; font-variant-caps: normal; font-weight: 400; letter-spacing: normal; orphans: 2; text-align: left; text-indent: 0px; text-transform: none; widows: 2; word-spacing: 0px; -webkit-text-stroke-width: 0px; white-space: nowrap; background-color: rgb(251, 251, 251); text-decoration-thickness: initial; text-decoration-style: initial; text-decoration-color: initial;&quot;&gt;&lt;font face=&quot;Roboto Mono&quot;&gt;&amp;nbsp; &amp;nbsp; &amp;nbsp; &amp;nbsp; &amp;nbsp; &amp;nbsp; &amp;nbsp; &amp;nbsp; &amp;nbsp; &amp;nbsp; &amp;nbsp; &amp;nbsp; &amp;nbsp; &amp;nbsp; &amp;nbsp; 0.169&amp;nbsp; &amp;nbsp; 0.169&amp;nbsp; &amp;nbsp; &amp;nbsp; &amp;nbsp;0.169&amp;nbsp; &amp;nbsp; 0.169&amp;nbsp; &amp;nbsp; &amp;nbsp; 0.169&lt;/font&gt;&lt;/div&gt;" style="text;whiteSpace=wrap;html=1;" parent="1" vertex="1">
          <mxGeometry x="1241" y="550" width="570" height="30" as="geometry" />
        </mxCell>
        <mxCell id="va03gOYCG1l0plrIrzYN-39" value="&lt;div style=&quot;forced-color-adjust: none; color: rgb(0, 0, 0); font-family: Helvetica; font-size: 12px; font-style: normal; font-variant-ligatures: normal; font-variant-caps: normal; font-weight: 400; letter-spacing: normal; orphans: 2; text-align: left; text-indent: 0px; text-transform: none; widows: 2; word-spacing: 0px; -webkit-text-stroke-width: 0px; white-space: nowrap; text-decoration-thickness: initial; text-decoration-style: initial; text-decoration-color: initial;&quot;&gt;&lt;font face=&quot;Roboto Mono&quot; style=&quot;forced-color-adjust: none;&quot;&gt;&lt;span style=&quot;background-color: rgb(251, 251, 251);&quot;&gt;&amp;nbsp;users_interests[5] -&amp;gt; [&quot;Python&quot;,&amp;nbsp; &amp;nbsp;&quot;R&quot;, &lt;/span&gt;&lt;span style=&quot;background-color: rgb(102, 255, 102);&quot;&gt;&quot;Java&quot;&lt;/span&gt;&lt;span style=&quot;background-color: rgb(251, 251, 251);&quot;&gt;, &quot;C++&quot;, &quot;Haskell&quot;, &quot;programming languages&quot;]&lt;/span&gt;&lt;/font&gt;&lt;/div&gt;" style="text;whiteSpace=wrap;html=1;" parent="1" vertex="1">
          <mxGeometry x="1241" y="580" width="650" height="30" as="geometry" />
        </mxCell>
        <mxCell id="va03gOYCG1l0plrIrzYN-40" value="&lt;div style=&quot;forced-color-adjust: none; color: rgb(0, 0, 0); font-size: 12px; font-style: normal; font-variant-ligatures: normal; font-variant-caps: normal; font-weight: 400; letter-spacing: normal; orphans: 2; text-align: left; text-indent: 0px; text-transform: none; widows: 2; word-spacing: 0px; -webkit-text-stroke-width: 0px; white-space: nowrap; background-color: rgb(251, 251, 251); text-decoration-thickness: initial; text-decoration-style: initial; text-decoration-color: initial;&quot;&gt;&lt;font face=&quot;Roboto Mono&quot;&gt;&amp;nbsp; &amp;nbsp; &amp;nbsp; &amp;nbsp; &amp;nbsp; &amp;nbsp; &amp;nbsp; &amp;nbsp; &amp;nbsp; &amp;nbsp; &amp;nbsp; &amp;nbsp; &amp;nbsp; &amp;nbsp;0.154&amp;nbsp; 0.154&amp;nbsp; &amp;nbsp;0.154&amp;nbsp; 0.154&amp;nbsp; &amp;nbsp; &amp;nbsp; 0.154&amp;nbsp; &amp;nbsp; &amp;nbsp; &amp;nbsp; &amp;nbsp; &amp;nbsp; &amp;nbsp; &amp;nbsp; &amp;nbsp; &amp;nbsp; 0.154&amp;nbsp; &amp;nbsp; &amp;nbsp; &amp;nbsp; &amp;nbsp; &amp;nbsp;&lt;/font&gt;&lt;/div&gt;" style="text;whiteSpace=wrap;html=1;" parent="1" vertex="1">
          <mxGeometry x="1241" y="600" width="670" height="30" as="geometry" />
        </mxCell>
        <mxCell id="va03gOYCG1l0plrIrzYN-41" value="&lt;div style=&quot;forced-color-adjust: none; orphans: 2; text-align: left; text-indent: 0px; widows: 2; text-decoration-thickness: initial; text-decoration-style: initial; text-decoration-color: initial; white-space: nowrap; -webkit-text-stroke-width: 0px; word-spacing: 0px; text-transform: none; letter-spacing: normal; font-weight: 400; font-variant-caps: normal; font-variant-ligatures: normal; font-style: normal; font-size: 12px; color: rgb(0, 0, 0); font-family: Helvetica;&quot;&gt;&lt;font face=&quot;Roboto Mono&quot; style=&quot;forced-color-adjust: none;&quot;&gt;&lt;span style=&quot;background-color: rgb(251, 251, 251);&quot;&gt;user_based_suggestion(0)&lt;/span&gt;&lt;br&gt;&lt;span style=&quot;background-color: rgb(251, 251, 251);&quot;&gt;= [(&lt;/span&gt;&lt;span style=&quot;background-color: rgb(255, 255, 102);&quot;&gt;&#39;Big Data&#39;&lt;/span&gt;&lt;span style=&quot;background-color: rgb(251, 251, 251);&quot;&gt;, 0.7559289460184544),&lt;/span&gt;&lt;br&gt;&lt;span style=&quot;background-color: rgb(251, 251, 251);&quot;&gt;&amp;nbsp; &amp;nbsp;(&lt;/span&gt;&lt;span style=&quot;background-color: rgb(102, 255, 102);&quot;&gt;&#39;Java&#39;&lt;/span&gt;&lt;span style=&quot;background-color: rgb(251, 251, 251);&quot;&gt;, 0.7212500594759328),&lt;/span&gt;&lt;/font&gt;&lt;/div&gt;&lt;div style=&quot;forced-color-adjust: none; orphans: 2; text-align: left; text-indent: 0px; widows: 2; text-decoration-thickness: initial; text-decoration-style: initial; text-decoration-color: initial; white-space: nowrap; -webkit-text-stroke-width: 0px; word-spacing: 0px; text-transform: none; letter-spacing: normal; font-weight: 400; font-variant-caps: normal; font-variant-ligatures: normal; font-style: normal; font-size: 12px; color: rgb(0, 0, 0); font-family: Helvetica;&quot;&gt;&lt;font face=&quot;Roboto Mono&quot; style=&quot;forced-color-adjust: none;&quot;&gt;&lt;span style=&quot;background-color: rgb(251, 251, 251);&quot;&gt;&amp;nbsp; &amp;nbsp;(&lt;/span&gt;&lt;span style=&quot;background-color: rgb(51, 255, 255);&quot;&gt;&#39;Hadoop&#39;&lt;/span&gt;&lt;span style=&quot;background-color: rgb(251, 251, 251);&quot;&gt;, 0.5669467095138409),&lt;/span&gt;&lt;br&gt;&lt;span style=&quot;background-color: rgb(251, 251, 251);&quot;&gt;&amp;nbsp; &amp;nbsp;(&lt;/span&gt;&lt;span style=&quot;background-color: rgb(255, 153, 153);&quot;&gt;&#39;MapReduce&#39;&lt;/span&gt;&lt;span style=&quot;background-color: rgb(251, 251, 251);&quot;&gt;, 0.5669467095138409),&lt;/span&gt;&lt;br&gt;&lt;span style=&quot;background-color: rgb(251, 251, 251);&quot;&gt;&amp;nbsp; &amp;nbsp;(&lt;/span&gt;&lt;span style=&quot;background-color: rgb(255, 153, 255);&quot;&gt;&#39;MongoDB&#39;&lt;/span&gt;&lt;span style=&quot;background-color: rgb(251, 251, 251);&quot;&gt;, 0.50709255283711),&lt;/span&gt;&lt;br&gt;&lt;span style=&quot;background-color: rgb(251, 251, 251);&quot;&gt;&amp;nbsp; &amp;nbsp;...,&lt;/span&gt;&lt;br&gt;&lt;span style=&quot;background-color: rgb(251, 251, 251);&quot;&gt;&amp;nbsp; &amp;nbsp;(&#39;programming languages&#39;, 0.1543033499620919)]&lt;/span&gt;&lt;/font&gt;&lt;/div&gt;" style="text;whiteSpace=wrap;html=1;" parent="1" vertex="1">
          <mxGeometry x="1241" y="640" width="280" height="140" as="geometry" />
        </mxCell>
        <mxCell id="va03gOYCG1l0plrIrzYN-42" value="&lt;div style=&quot;forced-color-adjust: none; orphans: 2; text-align: left; text-indent: 0px; widows: 2; text-decoration-thickness: initial; text-decoration-style: initial; text-decoration-color: initial; white-space: nowrap; -webkit-text-stroke-width: 0px; word-spacing: 0px; text-transform: none; letter-spacing: normal; font-weight: 400; font-variant-caps: normal; font-variant-ligatures: normal; font-style: normal; font-size: 12px; color: rgb(0, 0, 0); font-family: Helvetica;&quot;&gt;&lt;br&gt;&lt;/div&gt;&lt;div style=&quot;forced-color-adjust: none; orphans: 2; text-align: left; text-indent: 0px; widows: 2; text-decoration-thickness: initial; text-decoration-style: initial; text-decoration-color: initial; white-space: nowrap; -webkit-text-stroke-width: 0px; word-spacing: 0px; text-transform: none; letter-spacing: normal; font-weight: 400; font-variant-caps: normal; font-variant-ligatures: normal; font-style: normal; font-size: 12px; color: rgb(0, 0, 0);&quot;&gt;&lt;font face=&quot;Roboto Mono&quot;&gt;&amp;nbsp;(0.567 + 0.189)&lt;br&gt;&amp;nbsp;(0.567 + 0.154)&lt;br&gt;&amp;nbsp;(0.567&lt;br&gt;&amp;nbsp;(0.567&lt;br&gt;&amp;nbsp;(0.338 + 0.169)&lt;/font&gt;&lt;/div&gt;" style="text;whiteSpace=wrap;html=1;" parent="1" vertex="1">
          <mxGeometry x="1521" y="640" width="160" height="140" as="geometry" />
        </mxCell>
        <mxCell id="9ko1wL4NPuGr1AwKb8PS-1" value="&lt;div&gt;&lt;font face=&quot;Roboto Mono&quot;&gt;users_interests = [&lt;/font&gt;&lt;/div&gt;&lt;div&gt;&lt;font face=&quot;Roboto Mono&quot;&gt;&amp;nbsp; [&quot;Hadoop&quot;, &lt;span style=&quot;background-color: rgb(255, 255, 102);&quot;&gt;&quot;Big Data&quot;&lt;/span&gt;, &quot;HBase&quot;, &quot;Java&quot;, &quot;Spark&quot;, &quot;Storm&quot;, &quot;Cassandra&quot;],&lt;/font&gt;&lt;/div&gt;&lt;div&gt;&lt;font face=&quot;Roboto Mono&quot;&gt;&amp;nbsp; [&quot;NoSQL&quot;, &quot;MongoDB&quot;, &quot;Cassandra&quot;, &quot;HBase&quot;, &quot;Postgres&quot;],&lt;/font&gt;&lt;/div&gt;&lt;div&gt;&lt;font face=&quot;Roboto Mono&quot;&gt;&amp;nbsp; [&quot;Python&quot;, &quot;scikit-learn&quot;, &quot;scipy&quot;, &quot;numpy&quot;, &quot;statsmodels&quot;, &quot;pandas&quot;],&lt;/font&gt;&lt;/div&gt;&lt;div&gt;&lt;font face=&quot;Roboto Mono&quot;&gt;&amp;nbsp; [&quot;R&quot;, &quot;Python&quot;, &quot;statistics&quot;, &quot;regression&quot;, &quot;probability&quot;],&lt;/font&gt;&lt;/div&gt;&lt;div&gt;&lt;font face=&quot;Roboto Mono&quot;&gt;&amp;nbsp; [&quot;machine learning&quot;, &quot;regression&quot;, &quot;decision trees&quot;, &quot;libsvm&quot;],&lt;/font&gt;&lt;/div&gt;&lt;div&gt;&lt;font face=&quot;Roboto Mono&quot;&gt;&amp;nbsp; [&quot;Python&quot;, &quot;R&quot;, &quot;Java&quot;, &quot;C++&quot;, &quot;Haskell&quot;, &quot;programming languages&quot;],&lt;/font&gt;&lt;/div&gt;&lt;div&gt;&lt;font face=&quot;Roboto Mono&quot;&gt;&amp;nbsp; [&quot;statistics&quot;, &quot;probability&quot;, &quot;mathematics&quot;, &quot;theory&quot;],&lt;/font&gt;&lt;/div&gt;&lt;div&gt;&lt;font face=&quot;Roboto Mono&quot;&gt;&amp;nbsp; [&quot;machine learning&quot;, &quot;scikit-learn&quot;, &quot;Mahout&quot;, &quot;neural networks&quot;],&lt;/font&gt;&lt;/div&gt;&lt;div&gt;&lt;font face=&quot;Roboto Mono&quot;&gt;&amp;nbsp; [&quot;neural networks&quot;, &quot;deep learning&quot;, &lt;span style=&quot;background-color: rgb(255, 255, 102);&quot;&gt;&quot;Big Data&quot;&lt;/span&gt;, &quot;artificial intelligence&quot;],&lt;/font&gt;&lt;/div&gt;&lt;div&gt;&lt;font face=&quot;Roboto Mono&quot;&gt;&amp;nbsp; [&quot;Hadoop&quot;, &quot;Java&quot;, &quot;MapReduce&quot;, &lt;span style=&quot;background-color: rgb(255, 255, 102);&quot;&gt;&quot;Big Data&quot;&lt;/span&gt;],&lt;/font&gt;&lt;/div&gt;&lt;div&gt;&lt;font face=&quot;Roboto Mono&quot;&gt;&amp;nbsp; [&quot;statistics&quot;, &quot;R&quot;, &quot;statsmodels&quot;],&lt;/font&gt;&lt;/div&gt;&lt;div&gt;&lt;font face=&quot;Roboto Mono&quot;&gt;&amp;nbsp; [&quot;C++&quot;, &quot;deep learning&quot;, &quot;artificial intelligence&quot;, &quot;probability&quot;],&lt;/font&gt;&lt;/div&gt;&lt;div&gt;&lt;font face=&quot;Roboto Mono&quot;&gt;&amp;nbsp; [&quot;pandas&quot;, &quot;R&quot;, &quot;Python&quot;],&lt;/font&gt;&lt;/div&gt;&lt;div&gt;&lt;font face=&quot;Roboto Mono&quot;&gt;&amp;nbsp; [&quot;databases&quot;, &quot;HBase&quot;, &quot;Postgres&quot;, &quot;MySQL&quot;, &quot;MongoDB&quot;],&lt;/font&gt;&lt;/div&gt;&lt;div&gt;&lt;font face=&quot;Roboto Mono&quot;&gt;&amp;nbsp; [&quot;libsvm&quot;, &quot;regression&quot;, &quot;support vector machines&quot;]&lt;/font&gt;&lt;/div&gt;&lt;div&gt;&lt;font face=&quot;Roboto Mono&quot;&gt;]&lt;/font&gt;&lt;/div&gt;" style="text;html=1;align=left;verticalAlign=middle;rounded=0;" parent="1" vertex="1">
          <mxGeometry x="40" y="960" width="570" height="270" as="geometry" />
        </mxCell>
        <mxCell id="9ko1wL4NPuGr1AwKb8PS-2" value="&lt;font style=&quot;font-size: 16px;&quot;&gt;&lt;b&gt;User-based collaborative filtering&lt;/b&gt;&lt;/font&gt;" style="text;html=1;align=left;verticalAlign=middle;rounded=0;" parent="1" vertex="1">
          <mxGeometry x="640" y="160" width="70" height="20" as="geometry" />
        </mxCell>
        <mxCell id="9ko1wL4NPuGr1AwKb8PS-3" value="&lt;font style=&quot;font-size: 16px;&quot;&gt;&lt;b&gt;User-based collaborative filtering&lt;/b&gt;&lt;/font&gt;" style="text;html=1;align=left;verticalAlign=middle;rounded=0;" parent="1" vertex="1">
          <mxGeometry x="640" y="920" width="70" height="20" as="geometry" />
        </mxCell>
        <mxCell id="9ko1wL4NPuGr1AwKb8PS-4" value="&lt;div&gt;&lt;br&gt;&lt;/div&gt;&lt;div&gt;&lt;font style=&quot;background-color: rgb(153, 255, 153);&quot; face=&quot;Roboto Mono&quot;&gt;0&lt;/font&gt;&lt;/div&gt;&lt;div&gt;&lt;font face=&quot;Roboto Mono&quot;&gt;1&lt;/font&gt;&lt;/div&gt;&lt;div&gt;&lt;font face=&quot;Roboto Mono&quot;&gt;2&lt;/font&gt;&lt;/div&gt;&lt;div&gt;&lt;font face=&quot;Roboto Mono&quot;&gt;3&lt;/font&gt;&lt;/div&gt;&lt;div&gt;&lt;font face=&quot;Roboto Mono&quot;&gt;4&lt;/font&gt;&lt;/div&gt;&lt;div&gt;&lt;font face=&quot;Roboto Mono&quot;&gt;5&lt;/font&gt;&lt;/div&gt;&lt;div&gt;&lt;font face=&quot;Roboto Mono&quot;&gt;6&lt;/font&gt;&lt;/div&gt;&lt;div&gt;&lt;font face=&quot;Roboto Mono&quot;&gt;7&lt;/font&gt;&lt;/div&gt;&lt;div&gt;&lt;font style=&quot;background-color: rgb(153, 255, 153);&quot; face=&quot;Roboto Mono&quot;&gt;8&lt;/font&gt;&lt;/div&gt;&lt;div&gt;&lt;font style=&quot;background-color: rgb(153, 255, 153);&quot; face=&quot;Roboto Mono&quot;&gt;9&lt;/font&gt;&lt;/div&gt;&lt;div&gt;&lt;font face=&quot;Roboto Mono&quot;&gt;10&lt;/font&gt;&lt;/div&gt;&lt;div&gt;&lt;font face=&quot;Roboto Mono&quot;&gt;11&lt;/font&gt;&lt;/div&gt;&lt;div&gt;&lt;font face=&quot;Roboto Mono&quot;&gt;12&lt;/font&gt;&lt;/div&gt;&lt;div&gt;&lt;font face=&quot;Roboto Mono&quot;&gt;13&lt;/font&gt;&lt;/div&gt;&lt;div&gt;&lt;font face=&quot;Roboto Mono&quot;&gt;14&lt;/font&gt;&lt;/div&gt;&lt;div&gt;&lt;font face=&quot;Roboto Mono&quot;&gt;&lt;br&gt;&lt;/font&gt;&lt;/div&gt;" style="text;html=1;align=right;verticalAlign=middle;rounded=0;" parent="1" vertex="1">
          <mxGeometry x="10" y="960" width="20" height="270" as="geometry" />
        </mxCell>
        <mxCell id="9ko1wL4NPuGr1AwKb8PS-5" value="&lt;div style=&quot;forced-color-adjust: none; color: rgb(0, 0, 0); font-family: Helvetica; font-size: 12px; font-style: normal; font-variant-ligatures: normal; font-variant-caps: normal; letter-spacing: normal; orphans: 2; text-align: left; text-indent: 0px; text-transform: none; widows: 2; word-spacing: 0px; -webkit-text-stroke-width: 0px; white-space: nowrap; text-decoration-thickness: initial; text-decoration-style: initial; text-decoration-color: initial;&quot;&gt;&lt;font face=&quot;Roboto Mono&quot; style=&quot;forced-color-adjust: none;&quot;&gt;&lt;span style=&quot;background-color: rgb(251, 251, 251);&quot;&gt;interest_user_matrix[&lt;/span&gt;&lt;span style=&quot;background-color: rgb(255, 255, 102);&quot;&gt;0&lt;/span&gt;&lt;span style=&quot;background-color: rgb(251, 251, 251);&quot;&gt;] -&amp;gt; [&lt;/span&gt;&lt;b style=&quot;background-color: rgb(153, 255, 153);&quot;&gt;1&lt;/b&gt;&lt;span style=&quot;background-color: rgb(251, 251, 251);&quot;&gt;, 0, 0, 0, 0, 0, 0, 0, &lt;/span&gt;&lt;b style=&quot;background-color: rgb(153, 255, 153);&quot;&gt;1&lt;/b&gt;&lt;span style=&quot;background-color: rgb(251, 251, 251);&quot;&gt;, &lt;/span&gt;&lt;b style=&quot;background-color: rgb(153, 255, 153);&quot;&gt;1&lt;/b&gt;&lt;span style=&quot;background-color: rgb(251, 251, 251);&quot;&gt;, 0, 0, 0, 0, 0]]&lt;/span&gt;&lt;/font&gt;&lt;/div&gt;" style="text;whiteSpace=wrap;html=1;" parent="1" vertex="1">
          <mxGeometry x="640" y="1000" width="1000" height="30" as="geometry" />
        </mxCell>
        <mxCell id="9ko1wL4NPuGr1AwKb8PS-6" value="" style="endArrow=block;html=1;rounded=0;endFill=1;" parent="1" edge="1">
          <mxGeometry width="50" height="50" relative="1" as="geometry">
            <mxPoint x="770" y="980" as="sourcePoint" />
            <mxPoint x="794" y="1006" as="targetPoint" />
          </mxGeometry>
        </mxCell>
        <mxCell id="9ko1wL4NPuGr1AwKb8PS-7" value="&lt;div style=&quot;forced-color-adjust: none; color: rgb(0, 0, 0); font-family: Helvetica; font-size: 12px; font-style: normal; font-variant-ligatures: normal; font-variant-caps: normal; font-weight: 400; letter-spacing: normal; orphans: 2; text-align: left; text-indent: 0px; text-transform: none; widows: 2; word-spacing: 0px; -webkit-text-stroke-width: 0px; white-space: nowrap; background-color: rgb(251, 251, 251); text-decoration-thickness: initial; text-decoration-style: initial; text-decoration-color: initial;&quot;&gt;&lt;font face=&quot;Roboto Mono&quot; style=&quot;forced-color-adjust: none;&quot;&gt;&quot;Big Data&quot;&lt;br&gt;&lt;/font&gt;&lt;/div&gt;" style="text;whiteSpace=wrap;html=1;" parent="1" vertex="1">
          <mxGeometry x="700" y="950" width="80" height="30" as="geometry" />
        </mxCell>
        <mxCell id="9ko1wL4NPuGr1AwKb8PS-8" value="&lt;div style=&quot;forced-color-adjust: none; color: rgb(0, 0, 0); font-family: Helvetica; font-size: 12px; font-style: normal; font-variant-ligatures: normal; font-variant-caps: normal; font-weight: 400; letter-spacing: normal; orphans: 2; text-align: left; text-indent: 0px; text-transform: none; widows: 2; word-spacing: 0px; -webkit-text-stroke-width: 0px; white-space: nowrap; background-color: rgb(251, 251, 251); text-decoration-thickness: initial; text-decoration-style: initial; text-decoration-color: initial;&quot;&gt;&lt;font face=&quot;Roboto Mono&quot; style=&quot;forced-color-adjust: none;&quot;&gt;user_0&lt;br&gt;&lt;/font&gt;&lt;/div&gt;" style="text;whiteSpace=wrap;html=1;" parent="1" vertex="1">
          <mxGeometry x="840" y="950" width="60" height="30" as="geometry" />
        </mxCell>
        <mxCell id="9ko1wL4NPuGr1AwKb8PS-9" value="&lt;div style=&quot;forced-color-adjust: none; color: rgb(0, 0, 0); font-family: Helvetica; font-size: 12px; font-style: normal; font-variant-ligatures: normal; font-variant-caps: normal; font-weight: 400; letter-spacing: normal; orphans: 2; text-indent: 0px; text-transform: none; widows: 2; word-spacing: 0px; -webkit-text-stroke-width: 0px; white-space: nowrap; background-color: rgb(251, 251, 251); text-decoration-thickness: initial; text-decoration-style: initial; text-decoration-color: initial;&quot;&gt;&lt;font style=&quot;forced-color-adjust: none;&quot; face=&quot;Roboto Mono&quot;&gt;user_8&lt;br&gt;&lt;/font&gt;&lt;/div&gt;" style="text;whiteSpace=wrap;html=1;align=right;" parent="1" vertex="1">
          <mxGeometry x="950" y="950" width="60" height="30" as="geometry" />
        </mxCell>
        <mxCell id="9ko1wL4NPuGr1AwKb8PS-10" value="&lt;div style=&quot;forced-color-adjust: none; color: rgb(0, 0, 0); font-family: Helvetica; font-size: 12px; font-style: normal; font-variant-ligatures: normal; font-variant-caps: normal; font-weight: 400; letter-spacing: normal; orphans: 2; text-indent: 0px; text-transform: none; widows: 2; word-spacing: 0px; -webkit-text-stroke-width: 0px; white-space: nowrap; background-color: rgb(251, 251, 251); text-decoration-thickness: initial; text-decoration-style: initial; text-decoration-color: initial;&quot;&gt;&lt;font face=&quot;Roboto Mono&quot; style=&quot;forced-color-adjust: none;&quot;&gt;user_9&lt;br&gt;&lt;/font&gt;&lt;/div&gt;" style="text;whiteSpace=wrap;html=1;align=left;" parent="1" vertex="1">
          <mxGeometry x="1040" y="950" width="60" height="30" as="geometry" />
        </mxCell>
        <mxCell id="9ko1wL4NPuGr1AwKb8PS-11" value="" style="endArrow=block;html=1;rounded=0;endFill=1;exitX=0.5;exitY=1;exitDx=0;exitDy=0;" parent="1" source="9ko1wL4NPuGr1AwKb8PS-8" edge="1">
          <mxGeometry width="50" height="50" relative="1" as="geometry">
            <mxPoint x="780" y="990" as="sourcePoint" />
            <mxPoint x="847" y="1008" as="targetPoint" />
          </mxGeometry>
        </mxCell>
        <mxCell id="9ko1wL4NPuGr1AwKb8PS-12" value="" style="endArrow=block;html=1;rounded=0;endFill=1;exitX=0.75;exitY=1;exitDx=0;exitDy=0;" parent="1" source="9ko1wL4NPuGr1AwKb8PS-9" edge="1">
          <mxGeometry width="50" height="50" relative="1" as="geometry">
            <mxPoint x="880" y="990" as="sourcePoint" />
            <mxPoint x="1019" y="1005" as="targetPoint" />
          </mxGeometry>
        </mxCell>
        <mxCell id="9ko1wL4NPuGr1AwKb8PS-13" value="" style="endArrow=block;html=1;rounded=0;endFill=1;exitX=0.25;exitY=1;exitDx=0;exitDy=0;" parent="1" source="9ko1wL4NPuGr1AwKb8PS-10" edge="1">
          <mxGeometry width="50" height="50" relative="1" as="geometry">
            <mxPoint x="1005" y="990" as="sourcePoint" />
            <mxPoint x="1041" y="1006" as="targetPoint" />
          </mxGeometry>
        </mxCell>
        <mxCell id="9ko1wL4NPuGr1AwKb8PS-14" value="&lt;div style=&quot;forced-color-adjust: none; color: rgb(0, 0, 0); font-family: Helvetica; font-size: 12px; font-style: normal; font-variant-ligatures: normal; font-variant-caps: normal; font-weight: 400; letter-spacing: normal; orphans: 2; text-align: left; text-indent: 0px; text-transform: none; widows: 2; word-spacing: 0px; -webkit-text-stroke-width: 0px; white-space: nowrap; text-decoration-thickness: initial; text-decoration-style: initial; text-decoration-color: initial;&quot;&gt;&lt;font face=&quot;Roboto Mono&quot; style=&quot;forced-color-adjust: none;&quot;&gt;&lt;span style=&quot;background-color: rgb(251, 251, 251);&quot;&gt;most_similar_interests_to(&lt;/span&gt;&lt;span style=&quot;background-color: rgb(255, 255, 102);&quot;&gt;0&lt;/span&gt;&lt;span style=&quot;background-color: rgb(251, 251, 251);&quot;&gt;)&lt;/span&gt;&lt;/font&gt;&lt;/div&gt;" style="text;whiteSpace=wrap;html=1;" parent="1" vertex="1">
          <mxGeometry x="880" y="1080" width="220" height="30" as="geometry" />
        </mxCell>
        <mxCell id="9ko1wL4NPuGr1AwKb8PS-16" value="&lt;div style=&quot;forced-color-adjust: none; orphans: 2; text-align: left; text-indent: 0px; widows: 2; text-decoration-thickness: initial; text-decoration-style: initial; text-decoration-color: initial;&quot;&gt;&lt;div style=&quot;&quot;&gt;&lt;font style=&quot;&quot; face=&quot;Roboto Mono&quot;&gt;&lt;span style=&quot;text-wrap: nowrap;&quot;&gt;[(&amp;nbsp; &amp;nbsp; &amp;nbsp; &amp;nbsp; &amp;nbsp; &amp;nbsp; &amp;nbsp; &amp;nbsp; &amp;nbsp;&#39;Hadoop&#39;, 0.8164965809277261),&lt;/span&gt;&lt;/font&gt;&lt;/div&gt;&lt;div style=&quot;&quot;&gt;&lt;font style=&quot;&quot; face=&quot;Roboto Mono&quot;&gt;&lt;span style=&quot;text-wrap: nowrap;&quot;&gt;&amp;nbsp;(&amp;nbsp; &amp;nbsp; &amp;nbsp; &amp;nbsp; &amp;nbsp; &amp;nbsp; &amp;nbsp; &amp;nbsp; &amp;nbsp; &amp;nbsp;&#39;Java&#39;, 0.6666666666666666),&lt;/span&gt;&lt;/font&gt;&lt;/div&gt;&lt;div style=&quot;&quot;&gt;&lt;font style=&quot;&quot; face=&quot;Roboto Mono&quot;&gt;&lt;span style=&quot;text-wrap: nowrap;&quot;&gt;&amp;nbsp;(&#39;&amp;nbsp; &amp;nbsp; &amp;nbsp; &amp;nbsp; &amp;nbsp; &amp;nbsp; &amp;nbsp; &lt;span style=&quot;background-color: rgb(153, 255, 153);&quot;&gt;MapReduce&#39;, 0.5773502691896258&lt;/span&gt;),&lt;/span&gt;&lt;/font&gt;&lt;/div&gt;&lt;div style=&quot;&quot;&gt;&lt;font style=&quot;&quot; face=&quot;Roboto Mono&quot;&gt;&lt;span style=&quot;text-wrap: nowrap;&quot;&gt;&amp;nbsp;(&amp;nbsp; &amp;nbsp; &amp;nbsp; &amp;nbsp; &amp;nbsp; &amp;nbsp; &amp;nbsp; &amp;nbsp; &amp;nbsp; &#39;Spark&#39;, 0.5773502691896258),&lt;/span&gt;&lt;/font&gt;&lt;/div&gt;&lt;div style=&quot;&quot;&gt;&lt;font style=&quot;&quot; face=&quot;Roboto Mono&quot;&gt;&lt;span style=&quot;text-wrap: nowrap;&quot;&gt;&amp;nbsp;(&amp;nbsp; &amp;nbsp; &amp;nbsp; &amp;nbsp; &amp;nbsp; &amp;nbsp; &amp;nbsp; &amp;nbsp; &amp;nbsp; &#39;Storm&#39;, 0.5773502691896258),&lt;/span&gt;&lt;br&gt;&lt;span style=&quot;text-wrap: nowrap;&quot;&gt;&amp;nbsp;(&amp;nbsp; &amp;nbsp; &amp;nbsp; &amp;nbsp; &amp;nbsp; &amp;nbsp; &amp;nbsp; &#39;Cassandra&#39;, 0.4082482904638631),&lt;/span&gt;&lt;br&gt;&lt;span style=&quot;text-wrap: nowrap;&quot;&gt;&amp;nbsp;(&#39;artificial intelligence&#39;, 0.4082482904638631),&lt;/span&gt;&lt;br&gt;&lt;span style=&quot;text-wrap: nowrap;&quot;&gt;&amp;nbsp;(&amp;nbsp; &amp;nbsp; &amp;nbsp; &amp;nbsp; &amp;nbsp; &#39;deep learning&#39;, 0.4082482904638631),&lt;/span&gt;&lt;br&gt;&lt;span style=&quot;text-wrap: nowrap;&quot;&gt;&amp;nbsp;(&amp;nbsp; &amp;nbsp; &amp;nbsp; &amp;nbsp; &#39;neural networks&#39;, 0.4082482904638631),&lt;/span&gt;&lt;/font&gt;&lt;/div&gt;&lt;div style=&quot;&quot;&gt;&lt;font style=&quot;&quot; face=&quot;Roboto Mono&quot;&gt;&lt;span style=&quot;text-wrap: nowrap;&quot;&gt;&amp;nbsp;&lt;/span&gt;&lt;/font&gt;&lt;span style=&quot;background-color: initial; text-wrap: nowrap;&quot;&gt;&lt;font face=&quot;Roboto Mono&quot;&gt;(&amp;nbsp; &amp;nbsp; &amp;nbsp; &amp;nbsp; &amp;nbsp; &amp;nbsp; &amp;nbsp; &amp;nbsp; &amp;nbsp; &#39;HBase&#39;, 0.3333333333333333)&lt;/font&gt;&lt;/span&gt;&lt;span style=&quot;text-wrap: nowrap; font-family: &amp;quot;Roboto Mono&amp;quot;; background-color: initial;&quot;&gt;]&lt;/span&gt;&lt;/div&gt;&lt;/div&gt;" style="text;whiteSpace=wrap;html=1;" parent="1" vertex="1">
          <mxGeometry x="910" y="1110" width="370" height="160" as="geometry" />
        </mxCell>
        <mxCell id="9ko1wL4NPuGr1AwKb8PS-17" value="&lt;div style=&quot;forced-color-adjust: none; color: rgb(0, 0, 0); font-family: Helvetica; font-size: 12px; font-style: normal; font-variant-ligatures: normal; font-variant-caps: normal; font-weight: 400; letter-spacing: normal; orphans: 2; text-align: left; text-indent: 0px; text-transform: none; widows: 2; word-spacing: 0px; -webkit-text-stroke-width: 0px; white-space: nowrap; background-color: rgb(251, 251, 251); text-decoration-thickness: initial; text-decoration-style: initial; text-decoration-color: initial;&quot;&gt;&lt;font face=&quot;Roboto Mono&quot; style=&quot;forced-color-adjust: none;&quot;&gt;&quot;Big Data&quot;&lt;/font&gt;&lt;/div&gt;" style="text;whiteSpace=wrap;html=1;" parent="1" vertex="1">
          <mxGeometry x="1080" y="1040" width="80" height="30" as="geometry" />
        </mxCell>
        <mxCell id="9ko1wL4NPuGr1AwKb8PS-18" value="" style="endArrow=block;html=1;rounded=0;endFill=1;exitX=0;exitY=0.5;exitDx=0;exitDy=0;" parent="1" source="9ko1wL4NPuGr1AwKb8PS-17" edge="1">
          <mxGeometry width="50" height="50" relative="1" as="geometry">
            <mxPoint x="1108" y="1070" as="sourcePoint" />
            <mxPoint x="1074" y="1086" as="targetPoint" />
          </mxGeometry>
        </mxCell>
        <mxCell id="9ko1wL4NPuGr1AwKb8PS-19" value="&lt;div style=&quot;forced-color-adjust: none; color: rgb(0, 0, 0); font-family: Helvetica; font-size: 12px; font-style: normal; font-variant-ligatures: normal; font-variant-caps: normal; font-weight: 400; letter-spacing: normal; orphans: 2; text-align: left; text-indent: 0px; text-transform: none; widows: 2; word-spacing: 0px; -webkit-text-stroke-width: 0px; white-space: nowrap; background-color: rgb(251, 251, 251); text-decoration-thickness: initial; text-decoration-style: initial; text-decoration-color: initial;&quot;&gt;&lt;font face=&quot;Roboto Mono&quot; style=&quot;forced-color-adjust: none;&quot;&gt;item_based_suggestion(0)&lt;/font&gt;&lt;/div&gt;" style="text;whiteSpace=wrap;html=1;" parent="1" vertex="1">
          <mxGeometry x="1320" y="1080" width="180" height="30" as="geometry" />
        </mxCell>
        <mxCell id="9ko1wL4NPuGr1AwKb8PS-20" value="&lt;div style=&quot;forced-color-adjust: none; color: rgb(0, 0, 0); font-family: Helvetica; font-size: 12px; font-style: normal; font-variant-ligatures: normal; font-variant-caps: normal; font-weight: 400; letter-spacing: normal; orphans: 2; text-align: left; text-indent: 0px; text-transform: none; widows: 2; word-spacing: 0px; -webkit-text-stroke-width: 0px; white-space: nowrap; text-decoration-thickness: initial; text-decoration-style: initial; text-decoration-color: initial;&quot;&gt;&lt;font face=&quot;Roboto Mono&quot; style=&quot;forced-color-adjust: none;&quot;&gt;&lt;span style=&quot;background-color: rgb(251, 251, 251);&quot;&gt;most_similar_interests_to(&lt;/span&gt;&lt;span style=&quot;background-color: rgb(255, 255, 102);&quot;&gt;2&lt;/span&gt;&lt;span style=&quot;background-color: rgb(251, 251, 251);&quot;&gt;)&lt;/span&gt;&lt;/font&gt;&lt;/div&gt;" style="text;whiteSpace=wrap;html=1;" parent="1" vertex="1">
          <mxGeometry x="880" y="1320" width="220" height="30" as="geometry" />
        </mxCell>
        <mxCell id="9ko1wL4NPuGr1AwKb8PS-21" value="&lt;div style=&quot;forced-color-adjust: none; orphans: 2; text-align: left; text-indent: 0px; widows: 2; text-decoration-thickness: initial; text-decoration-style: initial; text-decoration-color: initial;&quot;&gt;&lt;div style=&quot;&quot;&gt;&lt;font style=&quot;&quot; face=&quot;Roboto Mono&quot;&gt;&lt;span style=&quot;text-wrap: nowrap;&quot;&gt;[&lt;/span&gt;&lt;/font&gt;&lt;span style=&quot;background-color: initial;&quot;&gt;&lt;font style=&quot;&quot; face=&quot;Roboto Mono&quot;&gt;&lt;span style=&quot;text-wrap: nowrap;&quot;&gt;(&amp;nbsp; &amp;nbsp;&#39;HBase&#39;, 0.8164965809277261),&lt;/span&gt;&lt;br&gt;&lt;/font&gt;&lt;/span&gt;&lt;font style=&quot;&quot; face=&quot;Roboto Mono&quot;&gt;&lt;span style=&quot;background-color: initial; text-wrap: nowrap;&quot;&gt;&amp;nbsp;(&amp;nbsp; &amp;nbsp;&lt;/span&gt;&lt;span style=&quot;text-wrap: nowrap; background-color: rgb(255, 153, 255);&quot;&gt;&#39;NoSQL&#39;, 0.7071067811865475&lt;/span&gt;&lt;span style=&quot;background-color: initial; text-wrap: nowrap;&quot;&gt;),&lt;/span&gt;&lt;br&gt;&lt;span style=&quot;background-color: initial; text-wrap: nowrap;&quot;&gt;&amp;nbsp;(&amp;nbsp; &amp;nbsp;&#39;Spark&#39;, 0.7071067811865475),&lt;/span&gt;&lt;br&gt;&lt;span style=&quot;background-color: initial; text-wrap: nowrap;&quot;&gt;&amp;nbsp;(&amp;nbsp; &amp;nbsp;&#39;Storm&#39;, 0.7071067811865475),&lt;/span&gt;&lt;br&gt;&lt;span style=&quot;background-color: initial; text-wrap: nowrap;&quot;&gt;&amp;nbsp;(&amp;nbsp; &#39;Hadoop&#39;, 0.5),&lt;/span&gt;&lt;br&gt;&amp;nbsp;( &lt;span style=&quot;background-color: rgb(51, 255, 255);&quot;&gt;&#39;MongoDB&#39;, 0.5&lt;/span&gt;),&lt;br&gt;&lt;span style=&quot;background-color: initial; text-wrap: nowrap;&quot;&gt;&amp;nbsp;(&lt;/span&gt;&lt;span style=&quot;text-wrap: nowrap; background-color: rgb(255, 153, 153);&quot;&gt;&#39;Postgres&#39;, 0.5&lt;/span&gt;&lt;span style=&quot;background-color: initial; text-wrap: nowrap;&quot;&gt;),&lt;/span&gt;&lt;br&gt;&lt;span style=&quot;background-color: initial; text-wrap: nowrap;&quot;&gt;&amp;nbsp;(&#39;Big Data&#39;, 0.4082482904638631),&lt;/span&gt;&lt;br&gt;&lt;span style=&quot;background-color: initial; text-wrap: nowrap;&quot;&gt;&amp;nbsp;(&amp;nbsp; &amp;nbsp; &#39;Java&#39;, 0.4082482904638631)]&lt;/span&gt;&lt;/font&gt;&lt;/div&gt;&lt;/div&gt;" style="text;whiteSpace=wrap;html=1;" parent="1" vertex="1">
          <mxGeometry x="910" y="1350" width="260" height="150" as="geometry" />
        </mxCell>
        <mxCell id="9ko1wL4NPuGr1AwKb8PS-22" value="&lt;div style=&quot;forced-color-adjust: none; color: rgb(0, 0, 0); font-family: Helvetica; font-size: 12px; font-style: normal; font-variant-ligatures: normal; font-variant-caps: normal; font-weight: 400; letter-spacing: normal; orphans: 2; text-align: left; text-indent: 0px; text-transform: none; widows: 2; word-spacing: 0px; -webkit-text-stroke-width: 0px; white-space: nowrap; background-color: rgb(251, 251, 251); text-decoration-thickness: initial; text-decoration-style: initial; text-decoration-color: initial;&quot;&gt;&lt;font face=&quot;Roboto Mono&quot; style=&quot;forced-color-adjust: none;&quot;&gt;&quot;Cassandra&quot;&lt;/font&gt;&lt;/div&gt;" style="text;whiteSpace=wrap;html=1;" parent="1" vertex="1">
          <mxGeometry x="1080" y="1280" width="80" height="30" as="geometry" />
        </mxCell>
        <mxCell id="9ko1wL4NPuGr1AwKb8PS-23" value="" style="endArrow=block;html=1;rounded=0;endFill=1;exitX=0;exitY=0.5;exitDx=0;exitDy=0;" parent="1" source="9ko1wL4NPuGr1AwKb8PS-22" edge="1">
          <mxGeometry width="50" height="50" relative="1" as="geometry">
            <mxPoint x="1108" y="1310" as="sourcePoint" />
            <mxPoint x="1074" y="1326" as="targetPoint" />
          </mxGeometry>
        </mxCell>
        <mxCell id="9ko1wL4NPuGr1AwKb8PS-24" value="&lt;div style=&quot;forced-color-adjust: none; color: rgb(0, 0, 0); font-family: Helvetica; font-size: 12px; font-style: normal; font-variant-ligatures: normal; font-variant-caps: normal; font-weight: 400; letter-spacing: normal; orphans: 2; text-align: left; text-indent: 0px; text-transform: none; widows: 2; word-spacing: 0px; -webkit-text-stroke-width: 0px; white-space: nowrap; text-decoration-thickness: initial; text-decoration-style: initial; text-decoration-color: initial;&quot;&gt;&lt;font face=&quot;Roboto Mono&quot; style=&quot;forced-color-adjust: none;&quot;&gt;&lt;span style=&quot;background-color: rgb(251, 251, 251);&quot;&gt;most_similar_interests_to(&lt;/span&gt;&lt;span style=&quot;background-color: rgb(255, 255, 102);&quot;&gt;3&lt;/span&gt;&lt;span style=&quot;background-color: rgb(251, 251, 251);&quot;&gt;)&lt;/span&gt;&lt;/font&gt;&lt;/div&gt;" style="text;whiteSpace=wrap;html=1;" parent="1" vertex="1">
          <mxGeometry x="880" y="1550" width="220" height="30" as="geometry" />
        </mxCell>
        <mxCell id="9ko1wL4NPuGr1AwKb8PS-25" value="&lt;div style=&quot;forced-color-adjust: none; orphans: 2; text-align: left; text-indent: 0px; widows: 2; text-decoration-thickness: initial; text-decoration-style: initial; text-decoration-color: initial;&quot;&gt;&lt;div style=&quot;&quot;&gt;&lt;font style=&quot;&quot; face=&quot;Roboto Mono&quot;&gt;&lt;span style=&quot;text-wrap: nowrap;&quot;&gt;[&lt;/span&gt;&lt;/font&gt;&lt;span style=&quot;background-color: initial;&quot;&gt;&lt;font style=&quot;&quot; face=&quot;Roboto Mono&quot;&gt;&lt;span style=&quot;text-wrap: nowrap;&quot;&gt;(&#39;Cassandra&#39;, 0.8164965809277261),&lt;/span&gt;&lt;br&gt;&lt;/font&gt;&lt;/span&gt;&lt;font style=&quot;&quot; face=&quot;Roboto Mono&quot;&gt;&lt;span style=&quot;text-wrap: nowrap;&quot;&gt;&amp;nbsp;(&amp;nbsp; &lt;span style=&quot;background-color: rgb(51, 255, 255);&quot;&gt;&#39;MongoDB&#39;, 0.8164965809277261&lt;/span&gt;),&lt;/span&gt;&lt;br&gt;&lt;span style=&quot;background-color: initial; text-wrap: nowrap;&quot;&gt;&amp;nbsp;( &lt;/span&gt;&lt;span style=&quot;text-wrap: nowrap; background-color: rgb(255, 153, 153);&quot;&gt;&#39;Postgres&#39;, 0.8164965809277261&lt;/span&gt;&lt;span style=&quot;background-color: initial; text-wrap: nowrap;&quot;&gt;),&lt;/span&gt;&lt;br&gt;&lt;span style=&quot;background-color: initial; text-wrap: nowrap;&quot;&gt;&amp;nbsp;(&amp;nbsp; &amp;nbsp; &#39;MySQL&#39;, 0.5773502691896258),&lt;/span&gt;&lt;br&gt;&lt;span style=&quot;background-color: initial; text-wrap: nowrap;&quot;&gt;&amp;nbsp;(&amp;nbsp; &amp;nbsp; &lt;/span&gt;&lt;span style=&quot;text-wrap: nowrap; background-color: rgb(255, 153, 255);&quot;&gt;&#39;NoSQL&#39;, 0.5773502691896258&lt;/span&gt;&lt;span style=&quot;background-color: initial; text-wrap: nowrap;&quot;&gt;),&lt;/span&gt;&lt;br&gt;&lt;span style=&quot;background-color: initial; text-wrap: nowrap;&quot;&gt;&amp;nbsp;(&amp;nbsp; &amp;nbsp; &#39;Spark&#39;, 0.5773502691896258),&lt;/span&gt;&lt;br&gt;&lt;span style=&quot;background-color: initial; text-wrap: nowrap;&quot;&gt;&amp;nbsp;(&amp;nbsp; &amp;nbsp; &#39;Storm&#39;, 0.5773502691896258),&lt;/span&gt;&lt;br&gt;&amp;nbsp;(&#39;databases&#39;, 0.5773502691896258),&lt;br&gt;&amp;nbsp;(&amp;nbsp; &amp;nbsp;&#39;Hadoop&#39;, 0.4082482904638631),&lt;br&gt;&amp;nbsp;( &#39;Big Data&#39;, 0.3333333333333333),&lt;br&gt;&lt;span style=&quot;background-color: initial; text-wrap: nowrap;&quot;&gt;&amp;nbsp;&lt;/span&gt;&lt;/font&gt;&lt;span style=&quot;background-color: initial; text-wrap: nowrap;&quot;&gt;&lt;font face=&quot;Roboto Mono&quot;&gt;(&amp;nbsp; &amp;nbsp; &amp;nbsp;&#39;Java&#39;, 0.3333333333333333)&lt;/font&gt;&lt;/span&gt;&lt;span style=&quot;text-wrap: nowrap; font-family: &amp;quot;Roboto Mono&amp;quot;; background-color: initial;&quot;&gt;]&lt;/span&gt;&lt;/div&gt;&lt;/div&gt;" style="text;whiteSpace=wrap;html=1;" parent="1" vertex="1">
          <mxGeometry x="910" y="1580" width="260" height="190" as="geometry" />
        </mxCell>
        <mxCell id="9ko1wL4NPuGr1AwKb8PS-26" value="&lt;div style=&quot;forced-color-adjust: none; color: rgb(0, 0, 0); font-family: Helvetica; font-size: 12px; font-style: normal; font-variant-ligatures: normal; font-variant-caps: normal; font-weight: 400; letter-spacing: normal; orphans: 2; text-align: left; text-indent: 0px; text-transform: none; widows: 2; word-spacing: 0px; -webkit-text-stroke-width: 0px; white-space: nowrap; background-color: rgb(251, 251, 251); text-decoration-thickness: initial; text-decoration-style: initial; text-decoration-color: initial;&quot;&gt;&lt;font face=&quot;Roboto Mono&quot; style=&quot;forced-color-adjust: none;&quot;&gt;&quot;HBase&quot;&lt;/font&gt;&lt;/div&gt;" style="text;whiteSpace=wrap;html=1;" parent="1" vertex="1">
          <mxGeometry x="1080" y="1510" width="80" height="30" as="geometry" />
        </mxCell>
        <mxCell id="9ko1wL4NPuGr1AwKb8PS-27" value="" style="endArrow=block;html=1;rounded=0;endFill=1;exitX=0;exitY=0.5;exitDx=0;exitDy=0;" parent="1" source="9ko1wL4NPuGr1AwKb8PS-26" edge="1">
          <mxGeometry width="50" height="50" relative="1" as="geometry">
            <mxPoint x="1108" y="1540" as="sourcePoint" />
            <mxPoint x="1074" y="1556" as="targetPoint" />
          </mxGeometry>
        </mxCell>
        <mxCell id="9ko1wL4NPuGr1AwKb8PS-28" value="&lt;div style=&quot;forced-color-adjust: none; color: rgb(0, 0, 0); font-family: Helvetica; font-size: 12px; font-style: normal; font-variant-ligatures: normal; font-variant-caps: normal; font-weight: 400; letter-spacing: normal; orphans: 2; text-align: left; text-indent: 0px; text-transform: none; widows: 2; word-spacing: 0px; -webkit-text-stroke-width: 0px; white-space: nowrap; text-decoration-thickness: initial; text-decoration-style: initial; text-decoration-color: initial;&quot;&gt;&lt;font face=&quot;Roboto Mono&quot; style=&quot;forced-color-adjust: none;&quot;&gt;users_interests[0] -&amp;gt; [&quot;Hadoop&quot;, &quot;Big Data&quot;, &quot;HBase&quot;, &quot;Java&quot;, &quot;Spark&quot;, &quot;Storm&quot;, &quot;Cassandra&quot;]&lt;/font&gt;&lt;/div&gt;" style="text;whiteSpace=wrap;html=1;" parent="1" vertex="1">
          <mxGeometry x="1360" y="950" width="680" height="30" as="geometry" />
        </mxCell>
        <mxCell id="9ko1wL4NPuGr1AwKb8PS-29" value="&lt;div style=&quot;forced-color-adjust: none; color: rgb(0, 0, 0); font-family: Helvetica; font-size: 12px; font-style: normal; font-variant-ligatures: normal; font-variant-caps: normal; letter-spacing: normal; orphans: 2; text-align: left; text-indent: 0px; text-transform: none; widows: 2; word-spacing: 0px; -webkit-text-stroke-width: 0px; white-space: nowrap; background-color: rgb(251, 251, 251); text-decoration-thickness: initial; text-decoration-style: initial; text-decoration-color: initial;&quot;&gt;&lt;font face=&quot;Roboto Mono&quot; style=&quot;forced-color-adjust: none;&quot;&gt;user_interest_vectors[0] -&amp;gt; [&lt;b&gt;1&lt;/b&gt;, 0, &lt;b&gt;1&lt;/b&gt;, &lt;b&gt;1&lt;/b&gt;, &lt;b&gt;1&lt;/b&gt;, 0, &lt;b&gt;1&lt;/b&gt;, 0, 0, 0, 0, 0, 0, 0, 0, &lt;b&gt;1&lt;/b&gt;, &lt;b&gt;1&lt;/b&gt;, 0, 0, 0, 0, 0, 0, 0, 0, 0, 0, 0, 0, 0, 0, 0, 0, 0, 0, 0]&lt;/font&gt;&lt;/div&gt;" style="text;whiteSpace=wrap;html=1;" parent="1" vertex="1">
          <mxGeometry x="1320" y="1010" width="1000" height="30" as="geometry" />
        </mxCell>
        <mxCell id="9ko1wL4NPuGr1AwKb8PS-30" value="&lt;div style=&quot;forced-color-adjust: none; color: rgb(0, 0, 0); font-size: 12px; font-style: normal; font-variant-ligatures: normal; font-variant-caps: normal; font-weight: 400; letter-spacing: normal; orphans: 2; text-align: left; text-indent: 0px; text-transform: none; widows: 2; word-spacing: 0px; -webkit-text-stroke-width: 0px; white-space: nowrap; text-decoration-thickness: initial; text-decoration-style: initial; text-decoration-color: initial;&quot;&gt;&lt;font style=&quot;&quot; face=&quot;Roboto Mono&quot;&gt;&lt;span style=&quot;background-color: rgb(251, 251, 251);&quot;&gt;&amp;nbsp; &amp;nbsp; &amp;nbsp; &amp;nbsp; &amp;nbsp; &amp;nbsp; &amp;nbsp; &amp;nbsp; &amp;nbsp; &amp;nbsp; &amp;nbsp; &amp;nbsp; &amp;nbsp; &amp;nbsp; &amp;nbsp;&lt;/span&gt;&lt;span style=&quot;background-color: rgb(255, 255, 102);&quot;&gt;0&lt;/span&gt;&lt;span style=&quot;background-color: rgb(251, 251, 251);&quot;&gt;, 1, &lt;/span&gt;&lt;span style=&quot;background-color: rgb(255, 255, 102);&quot;&gt;2&lt;/span&gt;&lt;span style=&quot;background-color: rgb(251, 251, 251);&quot;&gt;, &lt;/span&gt;&lt;span style=&quot;background-color: rgb(255, 255, 102);&quot;&gt;3&lt;/span&gt;&lt;span style=&quot;background-color: rgb(251, 251, 251);&quot;&gt;, &lt;/span&gt;&lt;span style=&quot;background-color: rgb(255, 255, 102);&quot;&gt;4&lt;/span&gt;&lt;span style=&quot;background-color: rgb(251, 251, 251);&quot;&gt;, 5, &lt;/span&gt;&lt;span style=&quot;background-color: rgb(255, 255, 102);&quot;&gt;6&lt;/span&gt;&lt;span style=&quot;background-color: rgb(251, 251, 251);&quot;&gt;, 7, 8, 9,10,11,12,13,14,&lt;/span&gt;&lt;span style=&quot;background-color: rgb(255, 255, 102);&quot;&gt;15&lt;/span&gt;&lt;span style=&quot;background-color: rgb(251, 251, 251);&quot;&gt;,&lt;/span&gt;&lt;span style=&quot;background-color: rgb(255, 255, 102);&quot;&gt;16&lt;/span&gt;&lt;span style=&quot;background-color: rgb(251, 251, 251);&quot;&gt;,17,18,19,20,21,22,23,24,25,26,27,28,29,30,31,32,33,34,35&amp;nbsp;&lt;/span&gt;&lt;/font&gt;&lt;/div&gt;" style="text;whiteSpace=wrap;html=1;" parent="1" vertex="1">
          <mxGeometry x="1320" y="990" width="1000" height="30" as="geometry" />
        </mxCell>
        <mxCell id="9ko1wL4NPuGr1AwKb8PS-31" value="&lt;div style=&quot;forced-color-adjust: none; color: rgb(0, 0, 0); font-family: Helvetica; font-size: 12px; font-style: normal; font-variant-ligatures: normal; font-variant-caps: normal; font-weight: 400; letter-spacing: normal; orphans: 2; text-align: left; text-indent: 0px; text-transform: none; widows: 2; word-spacing: 0px; -webkit-text-stroke-width: 0px; white-space: nowrap; text-decoration-thickness: initial; text-decoration-style: initial; text-decoration-color: initial;&quot;&gt;&lt;font face=&quot;Roboto Mono&quot; style=&quot;forced-color-adjust: none;&quot;&gt;&lt;span style=&quot;background-color: rgb(251, 251, 251);&quot;&gt;most_similar_interests_to(&lt;/span&gt;&lt;span style=&quot;background-color: rgb(255, 255, 102);&quot;&gt;4&lt;/span&gt;&lt;span style=&quot;background-color: rgb(251, 251, 251);&quot;&gt;)&lt;/span&gt;&lt;/font&gt;&lt;/div&gt;" style="text;whiteSpace=wrap;html=1;" parent="1" vertex="1">
          <mxGeometry x="880" y="1830" width="220" height="30" as="geometry" />
        </mxCell>
        <mxCell id="9ko1wL4NPuGr1AwKb8PS-32" value="&lt;div style=&quot;forced-color-adjust: none; color: rgb(0, 0, 0); font-family: Helvetica; font-size: 12px; font-style: normal; font-variant-ligatures: normal; font-variant-caps: normal; font-weight: 400; letter-spacing: normal; orphans: 2; text-align: left; text-indent: 0px; text-transform: none; widows: 2; word-spacing: 0px; -webkit-text-stroke-width: 0px; white-space: nowrap; text-decoration-thickness: initial; text-decoration-style: initial; text-decoration-color: initial;&quot;&gt;&lt;font face=&quot;Roboto Mono&quot; style=&quot;forced-color-adjust: none;&quot;&gt;&lt;span style=&quot;background-color: rgb(251, 251, 251);&quot;&gt;most_similar_interests_to(&lt;/span&gt;&lt;span style=&quot;background-color: rgb(255, 255, 102);&quot;&gt;6&lt;/span&gt;&lt;span style=&quot;background-color: rgb(251, 251, 251);&quot;&gt;)&lt;/span&gt;&lt;/font&gt;&lt;/div&gt;" style="text;whiteSpace=wrap;html=1;" parent="1" vertex="1">
          <mxGeometry x="880" y="2040" width="220" height="30" as="geometry" />
        </mxCell>
        <mxCell id="9ko1wL4NPuGr1AwKb8PS-33" value="&lt;div style=&quot;forced-color-adjust: none; color: rgb(0, 0, 0); font-family: Helvetica; font-size: 12px; font-style: normal; font-variant-ligatures: normal; font-variant-caps: normal; font-weight: 400; letter-spacing: normal; orphans: 2; text-align: left; text-indent: 0px; text-transform: none; widows: 2; word-spacing: 0px; -webkit-text-stroke-width: 0px; white-space: nowrap; text-decoration-thickness: initial; text-decoration-style: initial; text-decoration-color: initial;&quot;&gt;&lt;font face=&quot;Roboto Mono&quot; style=&quot;forced-color-adjust: none;&quot;&gt;&lt;span style=&quot;background-color: rgb(251, 251, 251);&quot;&gt;most_similar_interests_to(&lt;/span&gt;&lt;span style=&quot;background-color: rgb(255, 255, 102);&quot;&gt;15&lt;/span&gt;&lt;span style=&quot;background-color: rgb(251, 251, 251);&quot;&gt;)&lt;/span&gt;&lt;/font&gt;&lt;/div&gt;" style="text;whiteSpace=wrap;html=1;" parent="1" vertex="1">
          <mxGeometry x="880" y="2320" width="220" height="30" as="geometry" />
        </mxCell>
        <mxCell id="9ko1wL4NPuGr1AwKb8PS-34" value="&lt;div style=&quot;forced-color-adjust: none; color: rgb(0, 0, 0); font-family: Helvetica; font-size: 12px; font-style: normal; font-variant-ligatures: normal; font-variant-caps: normal; font-weight: 400; letter-spacing: normal; orphans: 2; text-align: left; text-indent: 0px; text-transform: none; widows: 2; word-spacing: 0px; -webkit-text-stroke-width: 0px; white-space: nowrap; text-decoration-thickness: initial; text-decoration-style: initial; text-decoration-color: initial;&quot;&gt;&lt;font face=&quot;Roboto Mono&quot; style=&quot;forced-color-adjust: none;&quot;&gt;&lt;span style=&quot;background-color: rgb(251, 251, 251);&quot;&gt;most_similar_interests_to(&lt;/span&gt;&lt;span style=&quot;background-color: rgb(255, 255, 102);&quot;&gt;16&lt;/span&gt;&lt;span style=&quot;background-color: rgb(251, 251, 251);&quot;&gt;)&lt;/span&gt;&lt;/font&gt;&lt;/div&gt;" style="text;whiteSpace=wrap;html=1;" parent="1" vertex="1">
          <mxGeometry x="880" y="2520" width="220" height="30" as="geometry" />
        </mxCell>
        <mxCell id="YdFI7xM_D9GILyefO8Tx-1" value="" style="endArrow=block;html=1;rounded=0;endFill=1;edgeStyle=orthogonalEdgeStyle;curved=1;" parent="1" edge="1">
          <mxGeometry width="50" height="50" relative="1" as="geometry">
            <mxPoint x="1513" y="1002" as="sourcePoint" />
            <mxPoint x="1179" y="1072" as="targetPoint" />
          </mxGeometry>
        </mxCell>
        <mxCell id="YdFI7xM_D9GILyefO8Tx-2" value="" style="endArrow=block;html=1;rounded=0;endFill=1;" parent="1" edge="1">
          <mxGeometry width="50" height="50" relative="1" as="geometry">
            <mxPoint x="630" y="420" as="sourcePoint" />
            <mxPoint x="830" y="243" as="targetPoint" />
            <Array as="points">
              <mxPoint x="610" y="360" />
              <mxPoint x="610" y="300" />
              <mxPoint x="630" y="250" />
              <mxPoint x="680" y="240" />
              <mxPoint x="750" y="230" />
            </Array>
          </mxGeometry>
        </mxCell>
        <mxCell id="YdFI7xM_D9GILyefO8Tx-4" value="&lt;div style=&quot;forced-color-adjust: none; orphans: 2; text-align: left; text-indent: 0px; widows: 2; text-decoration-thickness: initial; text-decoration-style: initial; text-decoration-color: initial;&quot;&gt;&lt;div style=&quot;&quot;&gt;&lt;font style=&quot;&quot; face=&quot;Roboto Mono&quot;&gt;&lt;span style=&quot;text-wrap: nowrap;&quot;&gt;[&lt;/span&gt;&lt;/font&gt;&lt;span style=&quot;background-color: initial;&quot;&gt;&lt;font style=&quot;&quot; face=&quot;Roboto Mono&quot;&gt;&lt;span style=&quot;text-wrap: nowrap;&quot;&gt;( &#39;Big Data&#39;, 0.8164965809277261),&lt;/span&gt;&lt;br&gt;&lt;/font&gt;&lt;/span&gt;&lt;font style=&quot;&quot; face=&quot;Roboto Mono&quot;&gt;&lt;span style=&quot;background-color: initial; text-wrap: nowrap;&quot;&gt;&amp;nbsp;(&amp;nbsp; &amp;nbsp; &amp;nbsp;&#39;Java&#39;, 0.8164965809277261),&lt;/span&gt;&lt;br&gt;&lt;span style=&quot;text-wrap: nowrap;&quot;&gt;&amp;nbsp;(&lt;span style=&quot;background-color: rgb(153, 255, 153);&quot;&gt;&#39;MapReduce&#39;, 0.7071067811865475&lt;/span&gt;),&lt;/span&gt;&lt;br&gt;&lt;span style=&quot;background-color: initial; text-wrap: nowrap;&quot;&gt;&amp;nbsp;(&amp;nbsp; &amp;nbsp; &#39;Spark&#39;, 0.7071067811865475),&lt;/span&gt;&lt;br&gt;&lt;span style=&quot;background-color: initial; text-wrap: nowrap;&quot;&gt;&amp;nbsp;(&amp;nbsp; &amp;nbsp; &#39;Storm&#39;, 0.7071067811865475),&lt;/span&gt;&lt;br&gt;&lt;span style=&quot;background-color: initial; text-wrap: nowrap;&quot;&gt;&amp;nbsp;(&#39;Cassandra&#39;, 0.5),&lt;/span&gt;&lt;br&gt;&lt;span style=&quot;background-color: initial; text-wrap: nowrap;&quot;&gt;&amp;nbsp;&lt;/span&gt;&lt;/font&gt;&lt;span style=&quot;background-color: initial;&quot;&gt;&lt;font face=&quot;Roboto Mono&quot;&gt;&lt;span style=&quot;text-wrap: nowrap;&quot;&gt;(&amp;nbsp; &amp;nbsp; &#39;HBase&#39;, 0.4082482904638631)]&lt;/span&gt;&lt;/font&gt;&lt;/span&gt;&lt;/div&gt;&lt;/div&gt;" style="text;whiteSpace=wrap;html=1;" parent="1" vertex="1">
          <mxGeometry x="910" y="1860" width="260" height="120" as="geometry" />
        </mxCell>
        <mxCell id="YdFI7xM_D9GILyefO8Tx-5" value="&lt;div style=&quot;forced-color-adjust: none; orphans: 2; text-align: left; text-indent: 0px; widows: 2; text-decoration-thickness: initial; text-decoration-style: initial; text-decoration-color: initial;&quot;&gt;&lt;div style=&quot;&quot;&gt;&lt;font style=&quot;&quot; face=&quot;Roboto Mono&quot;&gt;&lt;span style=&quot;text-wrap: nowrap;&quot;&gt;[&lt;/span&gt;&lt;/font&gt;&lt;span style=&quot;background-color: initial;&quot;&gt;&lt;font style=&quot;&quot; face=&quot;Roboto Mono&quot;&gt;&lt;span style=&quot;text-wrap: nowrap;&quot;&gt;(&amp;nbsp; &amp;nbsp; &amp;nbsp; &amp;nbsp; &amp;nbsp; &amp;nbsp; &amp;nbsp; &amp;nbsp;&#39;Hadoop&#39;, 0.8164965809277261),&lt;/span&gt;&lt;br&gt;&lt;/font&gt;&lt;/span&gt;&lt;font style=&quot;&quot; face=&quot;Roboto Mono&quot;&gt;&lt;span style=&quot;background-color: initial; text-wrap: nowrap;&quot;&gt;&amp;nbsp;(&amp;nbsp; &amp;nbsp; &amp;nbsp; &amp;nbsp; &amp;nbsp; &amp;nbsp; &amp;nbsp;&#39;Big Data&#39;, 0.6666666666666666),&lt;/span&gt;&lt;br&gt;&lt;span style=&quot;background-color: initial; text-wrap: nowrap;&quot;&gt;&amp;nbsp;(&amp;nbsp; &amp;nbsp; &amp;nbsp; &amp;nbsp; &amp;nbsp; &amp;nbsp; &amp;nbsp; &#39;Haskell&#39;, 0.5773502691896258),&lt;/span&gt;&lt;br&gt;&lt;span style=&quot;text-wrap: nowrap;&quot;&gt;&amp;nbsp;(&amp;nbsp; &amp;nbsp; &amp;nbsp; &amp;nbsp; &amp;nbsp; &amp;nbsp; &lt;span style=&quot;background-color: rgb(153, 255, 153);&quot;&gt;&#39;MapReduce&#39;, 0.5773502691896258&lt;/span&gt;),&lt;/span&gt;&lt;br&gt;&lt;span style=&quot;background-color: initial; text-wrap: nowrap;&quot;&gt;&amp;nbsp;(&amp;nbsp; &amp;nbsp; &amp;nbsp; &amp;nbsp; &amp;nbsp; &amp;nbsp; &amp;nbsp; &amp;nbsp; &#39;Storm&#39;, 0.5773502691896258),&lt;/span&gt;&lt;br&gt;&lt;span style=&quot;background-color: initial; text-wrap: nowrap;&quot;&gt;&amp;nbsp;(&#39;programming languages&#39;, 0.5773502691896258),&lt;/span&gt;&lt;br&gt;&lt;span style=&quot;background-color: initial; text-wrap: nowrap;&quot;&gt;&amp;nbsp;&lt;/span&gt;&lt;/font&gt;&lt;span style=&quot;background-color: initial;&quot;&gt;&lt;font face=&quot;Roboto Mono&quot;&gt;&lt;span style=&quot;text-wrap: nowrap;&quot;&gt;(&amp;nbsp; &amp;nbsp; &amp;nbsp; &amp;nbsp; &amp;nbsp; &amp;nbsp; &amp;nbsp; &amp;nbsp; &amp;nbsp; &#39;C++&#39;, 0.4082482904638631),&lt;/span&gt;&lt;br&gt;&lt;span style=&quot;text-wrap: nowrap;&quot;&gt;&amp;nbsp;(&amp;nbsp; &amp;nbsp; &amp;nbsp; &amp;nbsp; &amp;nbsp; &amp;nbsp; &#39;Cassandra&#39;, 0.4082482904638631),&lt;/span&gt;&lt;br&gt;&lt;span style=&quot;text-wrap: nowrap;&quot;&gt;&amp;nbsp;(&amp;nbsp; &amp;nbsp; &amp;nbsp; &amp;nbsp; &amp;nbsp; &amp;nbsp; &amp;nbsp; &amp;nbsp; &#39;HBase&#39;, 0.3333333333333333),&lt;/span&gt;&lt;br&gt;&lt;span style=&quot;text-wrap: nowrap;&quot;&gt;&amp;nbsp;(&amp;nbsp; &amp;nbsp; &amp;nbsp; &amp;nbsp; &amp;nbsp; &amp;nbsp; &amp;nbsp; &amp;nbsp;&#39;Python&#39;, 0.2886751345948129),&lt;/span&gt;&lt;br&gt;&lt;span style=&quot;text-wrap: nowrap;&quot;&gt;&amp;nbsp;(&amp;nbsp; &amp;nbsp; &amp;nbsp; &amp;nbsp; &amp;nbsp; &amp;nbsp; &amp;nbsp; &amp;nbsp; &amp;nbsp; &amp;nbsp; &#39;R&#39;, 0.2886751345948129)]&lt;/span&gt;&lt;/font&gt;&lt;/span&gt;&lt;/div&gt;&lt;/div&gt;" style="text;whiteSpace=wrap;html=1;" parent="1" vertex="1">
          <mxGeometry x="920" y="2080" width="360" height="180" as="geometry" />
        </mxCell>
        <mxCell id="YdFI7xM_D9GILyefO8Tx-6" value="" style="endArrow=block;html=1;rounded=0;endFill=1;entryX=0.286;entryY=-0.113;entryDx=0;entryDy=0;entryPerimeter=0;" parent="1" target="9ko1wL4NPuGr1AwKb8PS-28" edge="1">
          <mxGeometry width="50" height="50" relative="1" as="geometry">
            <mxPoint x="890" y="590" as="sourcePoint" />
            <mxPoint x="1610" y="880" as="targetPoint" />
            <Array as="points">
              <mxPoint x="1080" y="710" />
            </Array>
          </mxGeometry>
        </mxCell>
        <mxCell id="YdFI7xM_D9GILyefO8Tx-7" value="" style="endArrow=block;html=1;rounded=0;endFill=1;exitX=0;exitY=0.5;exitDx=0;exitDy=0;" parent="1" source="YdFI7xM_D9GILyefO8Tx-8" edge="1">
          <mxGeometry width="50" height="50" relative="1" as="geometry">
            <mxPoint x="1108" y="1820" as="sourcePoint" />
            <mxPoint x="1074" y="1836" as="targetPoint" />
          </mxGeometry>
        </mxCell>
        <mxCell id="YdFI7xM_D9GILyefO8Tx-8" value="&lt;div style=&quot;forced-color-adjust: none; color: rgb(0, 0, 0); font-family: Helvetica; font-size: 12px; font-style: normal; font-variant-ligatures: normal; font-variant-caps: normal; font-weight: 400; letter-spacing: normal; orphans: 2; text-align: left; text-indent: 0px; text-transform: none; widows: 2; word-spacing: 0px; -webkit-text-stroke-width: 0px; white-space: nowrap; background-color: rgb(251, 251, 251); text-decoration-thickness: initial; text-decoration-style: initial; text-decoration-color: initial;&quot;&gt;&lt;font face=&quot;Roboto Mono&quot; style=&quot;forced-color-adjust: none;&quot;&gt;&quot;Hadoop&quot;&lt;/font&gt;&lt;/div&gt;" style="text;whiteSpace=wrap;html=1;" parent="1" vertex="1">
          <mxGeometry x="1080" y="1790" width="80" height="30" as="geometry" />
        </mxCell>
        <mxCell id="YdFI7xM_D9GILyefO8Tx-9" value="" style="endArrow=block;html=1;rounded=0;endFill=1;exitX=0;exitY=0.5;exitDx=0;exitDy=0;" parent="1" source="YdFI7xM_D9GILyefO8Tx-10" edge="1">
          <mxGeometry width="50" height="50" relative="1" as="geometry">
            <mxPoint x="1108" y="2030" as="sourcePoint" />
            <mxPoint x="1074" y="2046" as="targetPoint" />
          </mxGeometry>
        </mxCell>
        <mxCell id="YdFI7xM_D9GILyefO8Tx-10" value="&lt;div style=&quot;forced-color-adjust: none; color: rgb(0, 0, 0); font-family: Helvetica; font-size: 12px; font-style: normal; font-variant-ligatures: normal; font-variant-caps: normal; font-weight: 400; letter-spacing: normal; orphans: 2; text-align: left; text-indent: 0px; text-transform: none; widows: 2; word-spacing: 0px; -webkit-text-stroke-width: 0px; white-space: nowrap; background-color: rgb(251, 251, 251); text-decoration-thickness: initial; text-decoration-style: initial; text-decoration-color: initial;&quot;&gt;&lt;font face=&quot;Roboto Mono&quot; style=&quot;forced-color-adjust: none;&quot;&gt;&quot;Java&quot;&lt;/font&gt;&lt;/div&gt;" style="text;whiteSpace=wrap;html=1;" parent="1" vertex="1">
          <mxGeometry x="1080" y="2000" width="80" height="30" as="geometry" />
        </mxCell>
        <mxCell id="YdFI7xM_D9GILyefO8Tx-11" value="" style="endArrow=block;html=1;rounded=0;endFill=1;exitX=0;exitY=0.5;exitDx=0;exitDy=0;" parent="1" source="YdFI7xM_D9GILyefO8Tx-12" edge="1">
          <mxGeometry width="50" height="50" relative="1" as="geometry">
            <mxPoint x="1108" y="2310" as="sourcePoint" />
            <mxPoint x="1074" y="2326" as="targetPoint" />
          </mxGeometry>
        </mxCell>
        <mxCell id="YdFI7xM_D9GILyefO8Tx-12" value="&lt;div style=&quot;forced-color-adjust: none; color: rgb(0, 0, 0); font-family: Helvetica; font-size: 12px; font-style: normal; font-variant-ligatures: normal; font-variant-caps: normal; font-weight: 400; letter-spacing: normal; orphans: 2; text-align: left; text-indent: 0px; text-transform: none; widows: 2; word-spacing: 0px; -webkit-text-stroke-width: 0px; white-space: nowrap; background-color: rgb(251, 251, 251); text-decoration-thickness: initial; text-decoration-style: initial; text-decoration-color: initial;&quot;&gt;&lt;font face=&quot;Roboto Mono&quot; style=&quot;forced-color-adjust: none;&quot;&gt;&quot;Spark&quot;&lt;/font&gt;&lt;/div&gt;" style="text;whiteSpace=wrap;html=1;" parent="1" vertex="1">
          <mxGeometry x="1080" y="2280" width="80" height="30" as="geometry" />
        </mxCell>
        <mxCell id="YdFI7xM_D9GILyefO8Tx-13" value="&lt;div style=&quot;forced-color-adjust: none; orphans: 2; text-align: left; text-indent: 0px; widows: 2; text-decoration-thickness: initial; text-decoration-style: initial; text-decoration-color: initial;&quot;&gt;&lt;div style=&quot;&quot;&gt;&lt;font style=&quot;&quot; face=&quot;Roboto Mono&quot;&gt;&lt;span style=&quot;text-wrap: nowrap;&quot;&gt;[&lt;/span&gt;&lt;/font&gt;&lt;span style=&quot;background-color: initial; text-wrap: nowrap;&quot;&gt;&lt;font face=&quot;Roboto Mono&quot;&gt;(&amp;nbsp; &amp;nbsp; &#39;Storm&#39;, 1.0),&lt;br&gt;&lt;/font&gt;&lt;/span&gt;&lt;span style=&quot;background-color: initial;&quot;&gt;&lt;font face=&quot;Roboto Mono&quot;&gt;&lt;span style=&quot;text-wrap: nowrap;&quot;&gt;&amp;nbsp;(&#39;Cassandra&#39;, 0.7071067811865475),&lt;br&gt;&lt;/span&gt;&lt;/font&gt;&lt;font face=&quot;Roboto Mono&quot;&gt;&lt;span style=&quot;text-wrap: nowrap;&quot;&gt;&amp;nbsp;(&amp;nbsp; &amp;nbsp;&#39;Hadoop&#39;, 0.7071067811865475),&lt;/span&gt;&lt;br&gt;&amp;nbsp;( &#39;Big Data&#39;, 0.5773502691896258),&lt;br&gt;&amp;nbsp;(&amp;nbsp; &amp;nbsp; &#39;HBase&#39;, 0.5773502691896258),&lt;br&gt;&amp;nbsp;(&amp;nbsp; &amp;nbsp; &amp;nbsp;&#39;Java&#39;, 0.5773502691896258)&lt;span style=&quot;text-wrap: nowrap;&quot;&gt;]&lt;/span&gt;&lt;/font&gt;&lt;/span&gt;&lt;/div&gt;&lt;/div&gt;" style="text;whiteSpace=wrap;html=1;" parent="1" vertex="1">
          <mxGeometry x="920" y="2350" width="260" height="110" as="geometry" />
        </mxCell>
        <mxCell id="YdFI7xM_D9GILyefO8Tx-14" value="" style="endArrow=block;html=1;rounded=0;endFill=1;exitX=0;exitY=0.5;exitDx=0;exitDy=0;" parent="1" source="YdFI7xM_D9GILyefO8Tx-15" edge="1">
          <mxGeometry width="50" height="50" relative="1" as="geometry">
            <mxPoint x="1108" y="2510" as="sourcePoint" />
            <mxPoint x="1074" y="2526" as="targetPoint" />
          </mxGeometry>
        </mxCell>
        <mxCell id="YdFI7xM_D9GILyefO8Tx-15" value="&lt;div style=&quot;forced-color-adjust: none; color: rgb(0, 0, 0); font-family: Helvetica; font-size: 12px; font-style: normal; font-variant-ligatures: normal; font-variant-caps: normal; font-weight: 400; letter-spacing: normal; orphans: 2; text-align: left; text-indent: 0px; text-transform: none; widows: 2; word-spacing: 0px; -webkit-text-stroke-width: 0px; white-space: nowrap; background-color: rgb(251, 251, 251); text-decoration-thickness: initial; text-decoration-style: initial; text-decoration-color: initial;&quot;&gt;&lt;font face=&quot;Roboto Mono&quot; style=&quot;forced-color-adjust: none;&quot;&gt;&quot;Storm&quot;&lt;/font&gt;&lt;/div&gt;" style="text;whiteSpace=wrap;html=1;" parent="1" vertex="1">
          <mxGeometry x="1080" y="2480" width="80" height="30" as="geometry" />
        </mxCell>
        <mxCell id="YdFI7xM_D9GILyefO8Tx-16" value="&lt;div style=&quot;forced-color-adjust: none; orphans: 2; text-align: left; text-indent: 0px; widows: 2; text-decoration-thickness: initial; text-decoration-style: initial; text-decoration-color: initial;&quot;&gt;&lt;div style=&quot;&quot;&gt;&lt;font style=&quot;&quot; face=&quot;Roboto Mono&quot;&gt;&lt;span style=&quot;text-wrap: nowrap;&quot;&gt;[&lt;/span&gt;&lt;/font&gt;&lt;span style=&quot;background-color: initial;&quot;&gt;&lt;font style=&quot;&quot; face=&quot;Roboto Mono&quot;&gt;&lt;span style=&quot;text-wrap: nowrap;&quot;&gt;(&amp;nbsp; &amp;nbsp; &#39;Spark&#39;, 1.0),&lt;/span&gt;&lt;br&gt;&lt;/font&gt;&lt;/span&gt;&lt;span style=&quot;background-color: initial;&quot;&gt;&lt;font face=&quot;Roboto Mono&quot;&gt;&lt;span style=&quot;text-wrap: nowrap;&quot;&gt;&amp;nbsp;(&#39;Cassandra&#39;, 0.7071067811865475),&lt;br&gt;&lt;/span&gt;&lt;/font&gt;&lt;font face=&quot;Roboto Mono&quot;&gt;&lt;span style=&quot;text-wrap: nowrap;&quot;&gt;&amp;nbsp;(&amp;nbsp; &amp;nbsp;&#39;Hadoop&#39;, 0.7071067811865475),&lt;/span&gt;&lt;br&gt;&amp;nbsp;( &#39;Big Data&#39;, 0.5773502691896258),&lt;br&gt;&amp;nbsp;(&amp;nbsp; &amp;nbsp; &#39;HBase&#39;, 0.5773502691896258),&lt;br&gt;&amp;nbsp;(&amp;nbsp; &amp;nbsp; &amp;nbsp;&#39;Java&#39;, 0.5773502691896258)&lt;span style=&quot;text-wrap: nowrap;&quot;&gt;]&lt;/span&gt;&lt;/font&gt;&lt;/span&gt;&lt;/div&gt;&lt;/div&gt;" style="text;whiteSpace=wrap;html=1;" parent="1" vertex="1">
          <mxGeometry x="920" y="2560" width="260" height="110" as="geometry" />
        </mxCell>
        <mxCell id="YdFI7xM_D9GILyefO8Tx-18" value="&lt;div style=&quot;forced-color-adjust: none; orphans: 2; text-align: left; text-indent: 0px; widows: 2; text-decoration-thickness: initial; text-decoration-style: initial; text-decoration-color: initial;&quot;&gt;&lt;div style=&quot;&quot;&gt;&lt;font style=&quot;&quot; face=&quot;Roboto Mono&quot;&gt;&lt;span style=&quot;text-wrap: nowrap;&quot;&gt;[(&amp;nbsp; &amp;nbsp; &amp;nbsp; &amp;nbsp; &amp;nbsp; &amp;nbsp; &amp;nbsp; &#39;MapReduce&#39;, 1.861807319565799),&lt;/span&gt;&lt;br&gt;&lt;/font&gt;&lt;span style=&quot;background-color: initial;&quot;&gt;&lt;font face=&quot;Roboto Mono&quot;&gt;&lt;span style=&quot;text-wrap: nowrap;&quot;&gt;&amp;nbsp;(&amp;nbsp; &amp;nbsp; &amp;nbsp; &amp;nbsp; &amp;nbsp; &amp;nbsp; &amp;nbsp; &amp;nbsp; &#39;MongoDB&#39;, 1.3164965809277263),&lt;/span&gt;&lt;br&gt;&amp;nbsp;(&amp;nbsp; &amp;nbsp; &amp;nbsp; &amp;nbsp; &amp;nbsp; &amp;nbsp; &amp;nbsp; &amp;nbsp;&#39;Postgres&#39;, 1.3164965809277263),&lt;br&gt;&amp;nbsp;(&amp;nbsp; &amp;nbsp; &amp;nbsp; &amp;nbsp; &amp;nbsp; &amp;nbsp; &amp;nbsp; &amp;nbsp; &amp;nbsp; &#39;NoSQL&#39;, 1.2844570503761732),&lt;br&gt;&amp;nbsp;(&amp;nbsp; &amp;nbsp; &amp;nbsp; &amp;nbsp; &amp;nbsp; &amp;nbsp; &amp;nbsp; &amp;nbsp; &amp;nbsp; &#39;MySQL&#39;, 0.5773502691896258),&lt;br&gt;&amp;nbsp;(&amp;nbsp; &amp;nbsp; &amp;nbsp; &amp;nbsp; &amp;nbsp; &amp;nbsp; &amp;nbsp; &#39;databases&#39;, 0.5773502691896258),&lt;br&gt;&amp;nbsp;(&amp;nbsp; &amp;nbsp; &amp;nbsp; &amp;nbsp; &amp;nbsp; &amp;nbsp; &amp;nbsp; &amp;nbsp; &#39;Haskell&#39;, 0.5773502691896258),&lt;br&gt;&amp;nbsp;(&amp;nbsp; &#39;programming languages&#39;, 0.5773502691896258),&lt;br&gt;&amp;nbsp;(&#39;artificial intelligence&#39;, 0.4082482904638631),&lt;br&gt;&amp;nbsp;(&amp;nbsp; &amp;nbsp; &amp;nbsp; &amp;nbsp; &amp;nbsp; &#39;deep learning&#39;, 0.4082482904638631),&lt;br&gt;&amp;nbsp;(&amp;nbsp; &amp;nbsp; &amp;nbsp; &amp;nbsp; &#39;neural networks&#39;, 0.4082482904638631),&lt;br&gt;&amp;nbsp;(&amp;nbsp; &amp;nbsp; &amp;nbsp; &amp;nbsp; &amp;nbsp; &amp;nbsp; &amp;nbsp; &amp;nbsp; &amp;nbsp; &amp;nbsp; &#39;C++&#39;, 0.4082482904638631),&lt;br&gt;&amp;nbsp;(&amp;nbsp; &amp;nbsp; &amp;nbsp; &amp;nbsp; &amp;nbsp; &amp;nbsp; &amp;nbsp; &amp;nbsp; &amp;nbsp;&#39;Python&#39;, 0.2886751345948129),&lt;br&gt;&lt;span style=&quot;text-wrap: nowrap;&quot;&gt;&amp;nbsp;(&amp;nbsp; &amp;nbsp; &amp;nbsp; &amp;nbsp; &amp;nbsp; &amp;nbsp; &amp;nbsp; &amp;nbsp; &amp;nbsp; &amp;nbsp; &amp;nbsp; &#39;R&#39;, 0.2886751345948129)]&lt;/span&gt;&lt;/font&gt;&lt;/span&gt;&lt;/div&gt;&lt;/div&gt;" style="text;whiteSpace=wrap;html=1;" parent="1" vertex="1">
          <mxGeometry x="1400" y="1120" width="563" height="262" as="geometry" />
        </mxCell>
        <mxCell id="YdFI7xM_D9GILyefO8Tx-19" value="&lt;div style=&quot;forced-color-adjust: none; orphans: 2; text-align: left; text-indent: 0px; widows: 2; text-decoration-thickness: initial; text-decoration-style: initial; text-decoration-color: initial; white-space: nowrap; -webkit-text-stroke-width: 0px; word-spacing: 0px; text-transform: none; letter-spacing: normal; font-weight: 400; font-variant-caps: normal; font-variant-ligatures: normal; font-style: normal; font-size: 12px; color: rgb(0, 0, 0); font-family: Helvetica;&quot;&gt;&lt;span style=&quot;font-family: &amp;quot;Roboto Mono&amp;quot;; background-color: initial;&quot;&gt;&amp;nbsp;&lt;/span&gt;&lt;span style=&quot;font-family: &amp;quot;Roboto Mono&amp;quot;; background-color: rgb(153, 255, 153);&quot;&gt;(0.577 + 0.707 + 0.577)&lt;/span&gt;&lt;br&gt;&lt;/div&gt;&lt;div style=&quot;forced-color-adjust: none; orphans: 2; text-align: left; text-indent: 0px; widows: 2; text-decoration-thickness: initial; text-decoration-style: initial; text-decoration-color: initial; white-space: nowrap; -webkit-text-stroke-width: 0px; word-spacing: 0px; text-transform: none; letter-spacing: normal; font-weight: 400; font-variant-caps: normal; font-variant-ligatures: normal; font-style: normal; font-size: 12px; color: rgb(0, 0, 0);&quot;&gt;&lt;font face=&quot;Roboto Mono&quot;&gt;&amp;nbsp;&lt;span style=&quot;background-color: rgb(51, 255, 255);&quot;&gt;(0.500 + 0.816)&lt;/span&gt;&lt;br&gt;&amp;nbsp;&lt;span style=&quot;background-color: rgb(255, 153, 153);&quot;&gt;(0.500 + 0.816)&lt;br&gt;&lt;/span&gt;&amp;nbsp;&lt;span style=&quot;background-color: rgb(255, 153, 255);&quot;&gt;(0.707 + 0.577)&lt;/span&gt;&lt;br&gt;&amp;nbsp;...&lt;br&gt;&lt;br&gt;&lt;br&gt;&lt;br&gt;&lt;br&gt;&lt;br&gt;&lt;br&gt;&lt;br&gt;&lt;br&gt;&amp;nbsp;(0.288)&lt;/font&gt;&lt;/div&gt;" style="text;whiteSpace=wrap;html=1;" parent="1" vertex="1">
          <mxGeometry x="1770" y="1120" width="160" height="249" as="geometry" />
        </mxCell>
      </root>
    </mxGraphModel>
  </diagram>
</mxfile>
